<?xml version="1.0" encoding="utf-8"?>
<!-- Generator: Adobe Illustrator 22.1.0, SVG Export Plug-In . SVG Version: 6.00 Build 0)  -->
<svg version="1.1" id="Calque_1" xmlns="http://www.w3.org/2000/svg" xmlns:xlink="http://www.w3.org/1999/xlink" x="0px" y="0px"
	 viewBox="0 0 47 46.8" style="enable-background:new 0 0 47 46.8;" xml:space="preserve">
<style type="text/css">
	.st0{fill:#7F462D;}
</style>
<g>
	<g>
		<path class="st0" d="M47,12.4c0,0.2,0,0.4,0,0.6c0,7.3,0,14.6,0,21.8c0,0.4-0.1,0.6-0.5,0.8c-7.2,3.6-14.5,7.3-21.7,10.9
			c-0.2,0.1-0.4,0.2-0.6,0.3c0-0.2,0-0.4,0-0.5c0-7.3,0-14.6,0-21.9c0-0.4,0.1-0.6,0.4-0.7c7.3-3.7,14.6-7.3,21.9-11
			C46.6,12.6,46.7,12.5,47,12.4z"/>
		<path class="st0" d="M0,12.4c2.1,1,4,2,6,3c0.6,0.3,1.3,0.7,1.9,1c0.3,0.2,0.5,0.3,0.4,0.7c0,2.5,0,5,0,7.4c0,0.2,0,0.4,0,0.7
			c0.6,0,1.3,0.1,1.9,0c1.1-0.1,1.8,0.2,2.5,1c0.7,0.8,1.5,1.5,2.3,2.3c0-2.9,0-5.6,0-8.5c0.2,0.1,0.3,0.1,0.4,0.2
			c2.3,1.2,4.6,2.3,7,3.5c0.3,0.1,0.4,0.3,0.4,0.6c0,7.4,0,14.8,0,22.2c0,0.1,0,0.2,0,0.3c-0.2-0.1-0.3-0.2-0.5-0.2
			c-7.3-3.7-14.6-7.4-21.9-11C0.1,35.4,0,35.3,0,34.9c0-7.4,0-14.7,0-22.1C0,12.7,0,12.6,0,12.4z"/>
		<path class="st0" d="M15.8,18.9c3.8-2,7.6-4,11.3-6C30.6,11,34,9.2,37.5,7.4c0.2-0.1,0.5-0.1,0.7-0.1c2.6,1.3,5.2,2.6,7.8,3.9
			c0.1,0,0.1,0.1,0.2,0.1c-0.2,0.1-0.4,0.2-0.7,0.3C38.4,15.3,31.2,19,24,22.6c-0.3,0.2-0.6,0.2-1,0c-2.2-1.1-4.5-2.3-6.7-3.4
			C16.2,19.1,16,19,15.8,18.9z"/>
		<path class="st0" d="M0.7,11.4c0.7-0.4,1.4-0.7,2.1-1.1C9.5,6.9,16.3,3.5,23,0.1c0.4-0.2,0.7-0.2,1.1,0c2.3,1.2,4.7,2.4,7.1,3.6
			C31,3.8,30.8,3.9,30.7,4c-7.1,3.8-14.1,7.6-21.2,11.3c-0.2,0.1-0.5,0.2-0.7,0.1C6.1,14.1,3.5,12.7,0.7,11.4z"/>
	</g>
</g>
</svg>
