<?xml version="1.0" encoding="utf-8"?>
<!-- Generator: Adobe Illustrator 22.1.0, SVG Export Plug-In . SVG Version: 6.00 Build 0)  -->
<svg version="1.1" id="Calque_1" xmlns="http://www.w3.org/2000/svg" xmlns:xlink="http://www.w3.org/1999/xlink" x="0px" y="0px"
	 viewBox="0 0 59.6 52.1" style="enable-background:new 0 0 59.6 52.1;" xml:space="preserve">
<style type="text/css">
	.st0{fill:#7F462D;}
</style>
<g>
	<g>
		<path class="st0" d="M59.6,49c-0.3,1.2-0.9,2.2-2.1,2.7c-0.6,0.3-1.4,0.4-2.1,0.4c-11.4,0-22.8,0-34.2,0c-5.7,0-11.4,0-17,0
			c-2.7,0-4.2-1.5-4.2-4.2C0,37,0,26.2,0,15.3c0-2.7,1.5-4.2,4.2-4.2c6.5,0,13.1,0,19.6,0c0.3,0,0.5,0,0.8,0c0.9,0.2,1.5,1,1.5,1.9
			c0,0.9-0.7,1.7-1.6,1.8c-0.2,0-0.5,0-0.7,0c-6.4,0-12.8,0-19.2,0c-0.2,0-0.5,0-0.7,0c0,2.5,0,4.9,0,7.4c0.2,0,0.4,0,0.7,0
			c6.4,0,12.9,0,19.3,0c0.3,0,0.5,0,0.8,0c0.9,0.1,1.6,1,1.6,1.9c0,0.9-0.7,1.7-1.7,1.8c-0.2,0-0.5,0-0.7,0c-6.4,0-12.8,0-19.2,0
			c-0.2,0-0.5,0-0.7,0c0,7.4,0,14.9,0,22.3c17.3,0,34.7,0,52.1,0c0-0.2,0-0.4,0-0.7c0-4.1,0-8.1,0-12.2c0-1,0.6-1.8,1.5-1.9
			c0.9-0.2,1.7,0.3,2.1,1.2c0,0.1,0.1,0.1,0.1,0.2C59.6,39.6,59.6,44.3,59.6,49z"/>
		<path class="st0" d="M59.6,17c-0.1,0.8-0.2,1.7-0.3,2.5c-0.7,5.3-3.2,9.6-7.2,13c-1.9,1.7-4.1,3-6.2,4.3c-0.7,0.4-1.4,0.5-2.1,0
			c-3.2-1.8-6.2-3.9-8.6-6.6c-2.7-3-4.3-6.5-4.9-10.5c-0.6-4.1-0.3-8.2-0.3-12.3c0-0.9,0.6-1.5,1.4-1.9c3.4-1.4,6.7-2.9,10.1-4.3
			c0.8-0.4,1.6-0.7,2.5-1.1c0.6-0.3,1.2-0.3,1.8,0C49.8,2,54,3.8,58.2,5.6c0.7,0.3,1.1,0.8,1.3,1.4C59.6,10.4,59.6,13.7,59.6,17z
			 M55.8,13.3c0-1.7,0-3,0-4.2c0-0.3-0.1-0.5-0.4-0.6C52,7,48.5,5.5,45.1,4.1c-0.2-0.1-0.5-0.1-0.8,0c-3.5,1.5-7,3-10.5,4.5
			c-0.2,0.1-0.3,0.3-0.3,0.5c0.1,3.2,0,6.5,0.3,9.7c0.2,3,1.3,5.7,3.2,8.1c2,2.6,4.6,4.5,7.4,6.2c0.1,0.1,0.5,0,0.6-0.1
			c1.6-1.1,3.3-2.2,4.8-3.4c2.9-2.4,4.8-5.5,5.6-9.2C55.8,17.8,55.9,15.3,55.8,13.3z"/>
		<path class="st0" d="M13,33.5c1.2,0,2.3,0,3.5,0c1.2,0,2.1,0.7,2.1,1.8c0,1.1-0.8,1.9-2.1,1.9c-2.3,0-4.7,0-7,0
			c-1.2,0-2.1-0.8-2.1-1.9c0-1.1,0.8-1.8,2.1-1.8C10.7,33.5,11.9,33.5,13,33.5z"/>
		<path class="st0" d="M43,19.2c0.5-0.6,1-1.2,1.4-1.8c1.4-1.8,2.9-3.6,4.3-5.4c0.5-0.6,1.1-1,2-0.8c1.4,0.3,1.9,1.9,1,3
			c-1.2,1.5-2.4,3-3.6,4.5c-1.2,1.5-2.4,3-3.6,4.5c-1.1,1.3-2.4,1.3-3.4-0.1c-1.2-1.7-2.3-3.5-3.5-5.2c-0.8-1.2-0.3-2.6,1-2.9
			c0.8-0.2,1.5,0.1,2.1,0.8c0.6,0.9,1.3,1.9,1.9,2.8C42.7,18.8,42.8,18.9,43,19.2z"/>
	</g>
</g>
</svg>
