<?xml version="1.0" encoding="utf-8"?>
<!-- Generator: Adobe Illustrator 22.1.0, SVG Export Plug-In . SVG Version: 6.00 Build 0)  -->
<svg version="1.1" id="Calque_1" xmlns="http://www.w3.org/2000/svg" xmlns:xlink="http://www.w3.org/1999/xlink" x="0px" y="0px"
	 viewBox="0 0 47.9 48.1" style="enable-background:new 0 0 47.9 48.1;" xml:space="preserve">
<style type="text/css">
	.st0{fill:#7F462D;}
</style>
<g>
	<g>
		<path class="st0" d="M25.6,48.1c-1.3-0.4-1.8-1.4-1.8-2.7c0-3.2-0.2-6.4-0.6-9.7c-0.6-4.4-1.7-8.5-3.6-12.5c-2-4.1-4.3-8-7-11.6
			c0,0-0.1-0.1-0.2-0.2c0.5,1.4,1.1,2.6,1.5,4c0.4,1.3,0.8,2.7,1.1,4.1c0.3,1.4,0.4,2.8,0.6,4.3c-1.1,0.1-2.1,0-3-0.2
			c-3.2-0.7-5.6-2.6-7.4-5.2c-2.1-3-3.2-6.3-4.1-9.8C0.6,6,0.2,3.4,0,0.9C0,0.6,0,0.3,0,0C0.5,0,1,0,1.4,0.1
			c4.5,0.4,8.8,1.3,12.9,3.1c2.8,1.2,5.2,2.9,7,5.4c1.2,1.7,1.8,3.6,1.9,5.6c0.1,1.9-0.1,3.7-0.6,5.5c-0.1,0.2-0.1,0.5,0.1,0.7
			c1.4,2.3,2.5,4.9,3.2,7.5c0,0.1,0.1,0.2,0.1,0.4c0.1-0.2,0.2-0.4,0.3-0.5c0.8-1.1,1.7-2.2,2.5-3.3c0.2-0.3,0.3-0.5,0.2-0.8
			c-0.4-1.5-0.5-3-0.2-4.6c0.5-2.5,1.9-4.4,3.9-5.9c2.1-1.6,4.5-2.5,7-3.2c2.4-0.7,4.8-1.1,7.3-1.3c0.2,0,0.5,0,0.8,0
			c0,0.5-0.1,1.1-0.1,1.6c-0.3,3.6-1.1,7.1-2.7,10.4c-1,2-2.2,3.8-4.1,5.1c-1.8,1.2-3.7,1.7-6,1.6c0.4-3.7,2.3-6.6,4.4-9.5
			c-0.2,0.1-0.4,0.3-0.6,0.4c-2.4,1.9-4.4,4.3-6,6.8c-1.4,2.2-2.7,4.5-3.9,6.9c-0.7,1.4-1,3-1.4,4.5c-0.2,0.7,0.1,1.4,0.1,2.1
			c0.1,2.4,0.2,4.8,0.3,7.1c0,1-0.5,1.7-1.5,2.1c-0.1,0-0.1,0.1-0.2,0.1C26.1,48.1,25.8,48.1,25.6,48.1z"/>
	</g>
</g>
</svg>
