<?xml version="1.0" encoding="utf-8"?>
<!-- Generator: Adobe Illustrator 22.1.0, SVG Export Plug-In . SVG Version: 6.00 Build 0)  -->
<svg version="1.1" id="Calque_1" xmlns="http://www.w3.org/2000/svg" xmlns:xlink="http://www.w3.org/1999/xlink" x="0px" y="0px"
	 viewBox="0 0 128 110.2" style="enable-background:new 0 0 128 110.2;" xml:space="preserve">
<style type="text/css">
	.st0{fill:#815938;}
	.st1{fill:#6B4A00;}
	.st2{fill:#937A56;}
	.st3{fill:#FFFFFF;}
	.st4{fill:#EFD5D5;}
	.st5{fill:#EDC0C0;}
	.st6{fill:#C19680;}
	.st7{fill:#9C8965;}
	.st8{fill:#FEFEFE;}
	.st9{fill:#847A61;}
	.st10{fill:#C5B791;}
	.st11{fill:#B7A67D;}
	.st12{fill:#EDE9DD;}
	.st13{fill:#A89566;}
	.st14{fill:#A28D5B;}
	.st15{fill:#D9CEAF;}
	.st16{fill:#E4DDC7;}
	.st17{fill:#F7F6F1;}
	.st18{fill:#B09E72;}
	.st19{fill:#FDFDFD;}
	.st20{fill:#F4F1EB;}
	.st21{fill:#FFCF87;}
</style>
<g>
	<path class="st2" d="M71.7,0c3.3,0,6.5,0,9.7,0c0.2,0,0.4,0.1,0.7,0.1c0.4,0.8,0.5,1.6,0.7,2.4c2.2,9.7,4.3,19.4,6.4,29
		c1.8,8.1,3.6,16.1,5.3,24.2c0.1,0.5,0.2,0.9,0.5,1.3c1,0.4,2.2,0.1,3.3,0.3c-0.4,0-0.8,0-1.2,0c-3.6,0-7.2,0-10.9,0
		c-0.2,0-0.5,0-0.7,0c-1.1,0-1.2-0.1-1.5-1.2c-0.9-4.3-1.9-8.6-2.9-12.9c-0.4-1.8-0.2-1.7-2.2-1.7c-3.8,0-7.5,0-11.3,0
		c-1.5,0-1.5,0-1.7,1.5c-0.4,3.2-0.9,6.4-1.3,9.6c-0.1,1-0.2,2-0.4,3c-0.1,0.5-0.2,1-0.3,1.5c-0.3,0.1-0.6,0.2-0.9,0.2
		c-3.3,0-6.6,0.1-9.8,0C53,57,53,56.6,52.9,56.1c-1.6-7.1-3.1-14.2-4.7-21.3c-1.8-8.3-3.7-16.6-5.5-24.8c-0.5-2.3-1-4.5-1.5-6.8
		c-0.1-0.5-0.3-1-0.4-1.4c-0.4-0.1-0.5,0.1-0.5,0.4c-0.1,0.6-0.2,1.3-0.3,1.9c-0.5,3.5-0.9,7-1.4,10.5c-0.5,3.9-1,7.8-1.5,11.7
		c-0.5,3.9-1.1,7.7-1.6,11.6c-0.4,3.2-0.8,6.3-1.2,9.5c-0.4,2.9-0.7,5.8-1.1,8.7c-0.1,0.4-0.2,0.8-0.3,1.3c-1.6,0.2-3.2,0.1-4.7,0
		c0.9,0,1.9,0,2.8,0c0.4,0,0.7,0,1.1-0.1c0.5-0.1,0.7-0.3,0.8-0.8c0.2-1.2,0.4-2.5,0.5-3.7c0.5-3.4,0.9-6.8,1.3-10.2
		c0.3-2.4,0.6-4.9,0.9-7.3c0.3-2.4,0.7-4.9,1-7.3c0.3-2.5,0.6-5,1-7.4c0.3-2.3,0.6-4.7,0.9-7c0.2-1.7,0.5-3.5,0.7-5.2
		c0.3-2.3,0.6-4.7,0.9-7c0-0.2,0.1-0.4,0.1-0.5C40.3,0.3,40.5,0,40.9,0c0.2,0,0.4,0,0.6,0c2.8,0,5.6,0,8.4,0c0.3,0,0.6,0.1,1,0.1
		c0.5,0.9,0.6,1.8,0.8,2.7c1.6,7.1,3.1,14.1,4.7,21.2c1.9,8.6,3.8,17.1,5.7,25.7c0.5,2.1,0.9,4.3,1.4,6.4c0.1,0.3,0.1,0.7,0.6,0.7
		c0.1-0.5,0.3-1,0.3-1.5c0.4-3.2,0.8-6.3,1.2-9.5c0.4-3.1,0.9-6.2,1.3-9.4c0.3-2.5,0.6-5,0.9-7.5c0.3-2.3,0.6-4.7,0.9-7
		c0.3-2.5,0.7-5.1,1-7.6c0.2-1.7,0.5-3.4,0.7-5.1c0.2-1.8,0.5-3.6,0.7-5.4c0.1-0.9,0.2-1.8,0.4-2.8C71.4,0.8,71.5,0.5,71.7,0z
		 M66.4,41.1c0.6,0.4,1.1,0.3,1.7,0.3c3.6,0,7.2,0,10.9,0c0.3,0,0.7,0,1,0c0.2-0.1,0.5-0.2,0.8-0.4c-0.4-1.9-0.8-3.7-1.2-5.5
		c-2-9.1-4-18.2-6-27.3c-0.4-1.8-0.8-3.5-1.2-5.3c-0.1-0.4-0.1-0.9-0.6-1.3c-0.1,0.2-0.3,0.3-0.3,0.5c-0.1,0.8-0.2,1.7-0.3,2.5
		c-0.2,1.8-0.5,3.7-0.7,5.5c-0.3,2.4-0.6,4.8-0.9,7.2c-0.2,1.8-0.5,3.6-0.7,5.4c-0.2,1.8-0.5,3.6-0.7,5.4c-0.2,1.7-0.4,3.4-0.7,5.1
		c-0.3,2.3-0.6,4.7-0.9,7C66.4,40.5,66.4,40.8,66.4,41.1z"/>
	<path class="st2" d="M8.9,109.2c-0.5-0.2-0.6-0.7-0.7-1.1c-0.8-2.7-1.7-5.3-2.4-8C4.1,94.3,2.9,88.4,2,82.4
		C1.4,79.1,1,75.7,0.7,72.4c-0.3-3.1-0.5-6.2-0.6-9.3C0.1,60.7,0,58.3,0,56c0.1-3.3,0.2-6.7,0.4-10c0.2-2.5,0.4-5.1,0.7-7.6
		c0.3-2.6,0.7-5.2,1.1-7.8c0.9-5.1,1.9-10.1,3.3-15.1c0.8-3,1.8-5.9,2.7-8.9c0.1-0.4,0.2-0.9,0.7-1.1l0,0c-0.4,2-0.9,4-1.3,6
		c-0.7,3.4-1.3,6.8-1.8,10.3c-0.4,2.4-0.7,4.8-1,7.2c-0.4,3.1-0.7,6.3-1,9.4c-0.1,1.4-0.3,2.9-0.3,4.3c-0.1,3.2-0.2,6.4-0.4,9.6
		C3.1,53.6,3,55.1,3,56.7c0.1,4.1,0.2,8.2,0.3,12.4C3.4,71,3.5,73,3.7,74.9c0.1,1.8,0.3,3.6,0.5,5.4c0.2,1.9,0.4,3.8,0.6,5.7
		c0.3,2.3,0.6,4.7,0.9,7c0.6,3.5,1.2,6.9,1.9,10.4c0.3,1.8,0.7,3.5,1.1,5.3C8.8,108.8,8.9,109,8.9,109.2L8.9,109.2z"/>
	<path class="st2" d="M119,110c0.6-2.8,1.3-5.7,1.9-8.6c0.6-3,1.1-6,1.6-9c0.4-2.4,0.7-4.9,1-7.3c0.3-2.2,0.5-4.3,0.7-6.5
		c0.2-1.5,0.3-3,0.4-4.6c0.2-2.6,0.3-5.2,0.4-7.8c0-0.3,0-0.6,0-0.8c0-5.5,0.1-10.9,0-16.4c0-3.2-0.3-6.3-0.5-9.4
		c-0.3-3.3-0.6-6.6-1-10c-0.9-8.2-2.3-16.2-4.2-24.2c0-0.1,0-0.2,0-0.4c0.1,0.3,0.2,0.5,0.3,0.7c2.2,6.5,4,13.1,5.3,19.9
		c0.7,3.7,1.3,7.4,1.8,11.1c0.3,2.1,0.4,4.2,0.6,6.4c0.8,7.4,0.7,14.7,0.5,22.1c-0.1,2-0.3,4-0.4,6c-0.2,1.9-0.4,3.9-0.6,5.8
		c-0.4,2.8-0.7,5.6-1.2,8.4c-1.3,7.2-3,14.2-5.2,21.2c-0.3,0.9-0.6,1.8-0.9,2.6C119.4,109.4,119.1,109.7,119,110L119,110z"/>
	<path class="st2" d="M27.6,92.4c0-2.1,0-4.3,0-6.4c0-0.4,0-0.7,0-1.1c0-0.3,0.2-0.5,0.5-0.6c0,0,0.1,0,0.1,0c1.9,0,3.9-0.2,5.8,0.3
		c1.6,0.4,3,1.2,4.1,2.4c1,1.1,1.5,2.3,1.7,3.7c0.2,1.4,0.1,2.8-0.2,4.1c-0.5,1.8-1.6,3.2-3.2,4.2c-1.5,0.9-3.2,1.3-4.9,1.4
		c-1,0.1-2,0-3.1,0c-0.7,0-0.9-0.2-0.9-0.9c0-1,0-2,0-3.1C27.6,95.2,27.6,93.8,27.6,92.4z M38.4,92.5c0-3.4-1.6-5.5-4.9-6.4
		c-0.9-0.2-1.9-0.3-2.9-0.5c-0.3,0-0.6,0-0.8,0.1c-0.3,0.1-0.5,0.2-0.5,0.6c0,0.2,0,0.4,0,0.6c0,3.7,0,7.4,0,11.1
		c0,1,0.2,1.2,1.2,1.2c1.1,0,2.2-0.2,3.3-0.5C36.6,97.9,38.5,95.7,38.4,92.5z"/>
	<path class="st2" d="M54.7,84.2c0.7,1,5.2,10.7,7.2,15.4c0.1,0.2,0.2,0.5,0.3,0.9c-0.4,0-0.7,0.1-1,0.1c-0.4,0-0.6-0.2-0.8-0.5
		c-0.3-0.7-0.7-1.4-1-2.1c-0.1-0.3-0.3-0.6-0.4-0.9c-0.2-0.4-0.5-0.6-1-0.6c-2.2,0-4.4,0-6.7,0c-0.5,0-0.8,0.2-1,0.6
		c-0.4,0.9-0.8,1.8-1.2,2.6c-0.5,1-0.6,1-1.9,0.7c0-0.1,0-0.2,0-0.3c2.4-5.2,4.7-10.4,7.1-15.6C54.5,84.5,54.6,84.4,54.7,84.2z
		 M54.9,87.9c-0.8,0.8-1.3,1.7-2.9,5.8c-0.1,0.3-0.4,0.7-0.1,1.1c0.1,0,0.2,0.2,0.3,0.2c1.7,0,3.4,0,5.1,0c0.2,0,0.3-0.2,0.5-0.3
		c-0.1-0.4-0.2-0.7-0.4-1.1C56.6,91.7,55.9,89.8,54.9,87.9z"/>
	<path class="st2" d="M98.5,100.5c-0.4,0-0.6,0.1-0.8,0.1c-0.2,0-0.5,0-0.6,0c-0.5-0.4-0.6-0.9-0.8-1.3c-0.3-0.7-0.7-1.4-1-2.1
		c-0.2-0.5-0.6-0.7-1.1-0.7c-1.9,0-3.7,0-5.6,0c-0.5,0-1,0-1.6,0c-0.2,0.4-0.5,0.8-0.7,1.2c-0.3,0.7-0.6,1.4-1,2.1
		c-0.4,0.8-0.7,0.9-1.8,0.5c0-0.1-0.1-0.2,0-0.3c0.6-1.5,6.8-14.9,7.3-15.7c0.3-0.1,0.4,0.2,0.5,0.4c0.6,1.4,1.3,2.8,1.9,4.2
		c1.6,3.5,3.2,7,4.8,10.5C98.3,99.7,98.4,100,98.5,100.5z M88,94.7c0.2,0.1,0.3,0.2,0.4,0.2c1.7,0,3.3,0,5,0c0.2,0,0.4-0.2,0.6-0.3
		c-0.2-1-2.1-5.4-2.7-6.4c-0.1-0.1-0.2-0.1-0.4-0.3c-0.2,0.2-0.4,0.4-0.5,0.7C88.9,91.7,88.2,93.5,88,94.7z"/>
	<path class="st2" d="M77.3,86c-0.2,0.4-0.6,0.5-1,0.7c-0.3-0.2-0.5-0.4-0.8-0.6c-1.2-0.9-2.6-1-3.9-0.1c-1.5,1-1.6,2.9-0.1,3.9
		c0.3,0.2,0.7,0.4,1.1,0.6c0.5,0.2,0.9,0.4,1.4,0.6c0.6,0.3,1.2,0.5,1.7,0.9c2,1.2,2.7,3.1,2.2,5.2c-0.5,2.2-2.3,3.6-4.5,3.8
		c-2.6,0.2-4.5-1.3-5.2-3.3c-0.1-0.2-0.1-0.4-0.1-0.7c0.4-0.3,0.8-0.4,1.3-0.4c0.2,0.3,0.3,0.7,0.5,1c0.7,1.5,2.2,2.3,3.8,2
		c1.5-0.3,2.7-1.6,2.8-3.3c0-1-0.3-1.8-1.1-2.5c-0.4-0.3-0.8-0.6-1.3-0.8c-0.7-0.3-1.4-0.6-2-0.9c-0.6-0.3-1.2-0.6-1.8-1
		c-2.2-1.6-1.8-4.6-0.1-5.9c2.1-1.7,5.3-1.6,7,0.7C77.2,85.8,77.2,85.9,77.3,86z"/>
	<path class="st2" d="M29.6,68.7c1.1,2.5,2.1,4.6,3.1,6.8c0,0.1,0.2,0.1,0.2,0.1c0.4,0,0.5-0.4,0.6-0.7c0.6-1.3,1.2-2.6,1.7-3.9
		c0.3-0.7,0.6-1.4,1-2.2c0.4,0.1,0.3,0.4,0.3,0.6c0.1,0.2,0.1,0.4,0.2,0.7c0.4,2.3,0.9,4.5,1.3,6.8c0.1,0.7,0,1.1-0.3,1
		c-0.5-0.1-0.5-0.5-0.5-0.9c-0.3-1.6-0.6-3.2-0.9-4.8c0-0.3-0.1-0.6-0.5-0.6c-0.7,0.8-0.9,1.9-1.4,2.9c-0.5,1-0.8,2.1-1.5,3.1
		c-0.2-0.4-0.4-0.6-0.5-0.9c-0.6-1.4-1.2-2.8-1.9-4.2c-0.1-0.3-0.3-0.6-0.5-0.8c-0.1-0.1-0.2,0-0.4-0.1c-0.4,1.1-0.5,2.2-0.7,3.3
		c-0.1,0.7-0.2,1.4-0.3,2.1c-0.1,0.3-0.2,0.5-0.3,0.8c0,0.1-0.2,0.1-0.4,0.1c-0.1,0-0.2-0.1-0.2-0.2c0-0.3,0-0.6,0-0.8
		c0.5-2.4,0.9-4.8,1.4-7.2C29.3,69.4,29.4,69.1,29.6,68.7z"/>
	<path class="st2" d="M97.8,75.6c0.3-0.4,0.2-0.9,0.2-1.3c0-1.5,0-3.1,0-4.6c0-0.4,0.1-0.7,0.1-1.1c0-0.1,0.2-0.2,0.3-0.2
		c0.1,0,0.3,0.1,0.3,0.2c0.1,0.2,0.1,0.4,0.1,0.5c0,2.7,0,5.5,0,8.2c0,0.1-0.1,0.3-0.1,0.4c-0.4,0.1-0.6-0.3-0.8-0.5
		c-1.8-1.9-3.6-3.8-5.4-5.6c-0.3-0.3-0.6-0.7-1.2-0.8c-0.1,0.2-0.3,0.5-0.3,0.7c0,0.8,0,1.6,0,2.4c0,1,0,2,0,3.1
		c0,0.3-0.1,0.6-0.1,0.9c-0.4,0.2-0.5,0-0.6-0.2c0-0.2-0.1-0.5-0.1-0.7c0-2.6,0-5.2,0-7.8c0-0.1,0-0.3,0.1-0.4
		c0.3-0.2,0.4,0.1,0.6,0.2c1.8,1.9,3.7,3.8,5.5,5.7C96.9,75,97.2,75.4,97.8,75.6z"/>
	<path class="st2" d="M79.8,78.3c-2.9,0.1-5.2-2.3-5.2-5.1c0-2.9,2.5-5.1,5.1-5.1c2.7,0,5.1,2.1,5.2,5.1
		C85,76.1,82.6,78.3,79.8,78.3z M75.5,73.3c-0.1,2,1.5,4.3,4.3,4.3c2.3,0.1,4.3-2,4.3-4.4c0-2.5-1.9-4.4-4.4-4.4
		C77.2,68.9,75.5,70.8,75.5,73.3z"/>
	<path class="st2" d="M43.1,77.9c0.2-1,3.1-7.4,4.2-9.4c0.1,0.1,0.3,0.2,0.3,0.4c1.3,2.8,2.6,5.6,3.9,8.5c0.1,0.2,0.1,0.3,0.1,0.5
		c-0.2,0.3-0.5,0.2-0.6,0c-0.2-0.3-0.4-0.6-0.5-1c-0.7-1.4-0.7-1.4-2.2-1.4c-0.8,0-1.7,0-2.5,0c-0.6,0-1,0.3-1.3,0.8
		c-0.2,0.5-0.4,0.9-0.7,1.4C43.7,78,43.4,78.2,43.1,77.9z M49.2,74.7c0-0.9-0.1-1.3-1.1-3.4c-0.2-0.3-0.2-0.7-0.7-0.8
		c-0.7,0.9-1.6,2.8-1.8,4.1c0.2,0.1,0.5,0.2,0.7,0.2C47.3,74.8,48.2,75,49.2,74.7z"/>
	<path class="st2" d="M66.7,68.2c0.8,0,1.4,0.1,1.9,0.6c0.1,0.1,0.2,0.2,0.3,0.3c0,0.1,0,0.3,0,0.4c-0.1,0.1-0.3,0.2-0.4,0.1
		c-0.3-0.1-0.5-0.4-0.8-0.5c-0.7-0.3-1.5-0.2-2.1,0.3c-0.9,0.6-0.9,1.7-0.1,2.4c0.4,0.3,0.9,0.5,1.3,0.7c0.5,0.3,1,0.4,1.5,0.7
		c1,0.7,1.5,1.8,1.2,2.9c-0.3,1.2-1.3,2.2-2.5,2.3c-1.4,0.2-2.5-0.4-3.2-1.7c-0.1-0.1-0.1-0.3-0.1-0.4c0-0.1,0.1-0.2,0.2-0.3
		c0.1,0,0.2,0,0.3,0c0.2,0.3,0.4,0.6,0.7,0.9c0.6,0.8,1.6,1,2.5,0.6c0.9-0.4,1.4-1.2,1.3-2.2c-0.1-0.6-0.4-1.1-0.8-1.4
		c-0.4-0.3-0.9-0.5-1.3-0.7c-0.5-0.3-1-0.5-1.5-0.8c-0.8-0.5-1-1.4-0.8-2.3c0.2-1,0.8-1.5,1.8-1.7C66.3,68.2,66.6,68.2,66.7,68.2z"
		/>
	<path class="st2" d="M57.9,68.4c0.1,0.3,0.1,0.6,0.1,0.8c0,2.6,0,5.3,0,7.9c0,0.2-0.1,0.5-0.1,0.7c0,0.1-0.1,0.1-0.2,0.1
		c-0.1,0-0.2-0.1-0.2-0.1c-0.1-0.2-0.2-0.4-0.2-0.7c0-2.6,0-5.3,0-7.9c0-0.2,0-0.4,0.1-0.5C57.4,68.5,57.6,68.5,57.9,68.4z"/>
	<path class="st2" d="M44.9,87.5c0.3-1.1,0.7-2.1,1.1-3c0.2-0.4,0.5-0.4,1.2,0.1c0,0.1,0,0.3-0.1,0.4C46.4,85.8,45.8,86.7,44.9,87.5
		z"/>
	<path class="st2" d="M8.9,109.2c0,0.2,0,0.3,0,0.5c0,0-0.1,0-0.1,0C8.8,109.5,8.9,109.3,8.9,109.2C8.9,109.2,8.9,109.2,8.9,109.2z"
		/>
	<path class="st2" d="M8.9,5.4c0-0.2-0.1-0.3-0.1-0.5c0,0,0.1,0,0.1,0C8.9,5,8.9,5.2,8.9,5.4C8.9,5.3,8.9,5.4,8.9,5.4z"/>
	<path class="st2" d="M119,110c0,0.1,0,0.2,0,0.1C119,110.2,119,110.1,119,110C119,110,119,110,119,110z"/>
</g>
</svg>
