<?xml version="1.0" encoding="utf-8"?>
<!-- Generator: Adobe Illustrator 22.1.0, SVG Export Plug-In . SVG Version: 6.00 Build 0)  -->
<svg version="1.1" id="Calque_1" xmlns="http://www.w3.org/2000/svg" xmlns:xlink="http://www.w3.org/1999/xlink" x="0px" y="0px"
	 viewBox="0 0 107.7 118.4" style="enable-background:new 0 0 107.7 118.4;" xml:space="preserve">
<style type="text/css">
	.st0{fill:#815938;}
	.st1{fill:#6B4A00;}
	.st2{fill:#937A56;}
	.st3{fill:#FFFFFF;}
	.st4{fill:#EFD5D5;}
	.st5{fill:#EDC0C0;}
	.st6{fill:#C19680;}
	.st7{fill:#9C8965;}
	.st8{fill:#FEFEFE;}
	.st9{fill:#847A61;}
	.st10{fill:#C5B791;}
	.st11{fill:#B7A67D;}
	.st12{fill:#EDE9DD;}
	.st13{fill:#A89566;}
	.st14{fill:#A28D5B;}
	.st15{fill:#D9CEAF;}
	.st16{fill:#E4DDC7;}
	.st17{fill:#F7F6F1;}
	.st18{fill:#B09E72;}
	.st19{fill:#FDFDFD;}
	.st220{fill:#F4F1EB;}
	.st221{fill:#FFCF87;}
	.st22{fill:black;}
</style>
<g>
	<g>
		<g>
			<path class="st22" d="M58.3,84.4c-1.1-0.2-2.3-0.3-3.4-0.5c-3.3-0.6-6.4-1.9-8.8-4.3c-0.1-0.1-0.5-0.2-0.6-0.1
				c-3.6,1.4-7.4,2-11.3,1.7c-1.3-0.1-2.7-0.3-4-0.5c-1-0.2-1.2-0.7-0.7-1.6c1.8-3.2,4.2-5.9,7.1-8.1c0.1-0.1,0.3-0.2,0.4-0.4
				c-0.9-0.7-1.9-1.4-2.8-2.1c-3.1-2.6-5.6-5.8-7.3-9.5c-0.5-1-0.3-1.5,0.9-1.6c1-0.1,2.1-0.2,3.1-0.2c-0.1-1.1-0.3-2.2-0.4-3.3
				C30.1,47,31,40.3,34.4,34.2c1.7-3,3.9-5.5,7.1-7c0.8-0.4,1.6-0.8,2.4-1.3c2.2-1.2,4.3-0.8,6.4,0.4c0.9,0.5,1.6,1.3,2.3,2
				c0.4,0.3,0.8,0.7,1.1,1.1c3.6,3.3,5.6,7.5,6.8,12.1c0,0.2,0.1,0.4,0.2,0.6c0,0,0,0,0.1,0c0.3-0.3,0.5-0.7,0.8-1
				c2.7-3.3,6-5.9,9.9-7.7c0.9-0.4,1.4-0.2,1.6,0.8c0.6,5.4-0.4,10.6-2.8,15.4c-0.1,0.2-0.2,0.4-0.4,0.7c0.5,0,0.9,0,1.4,0
				c2.7-0.1,5.4,0.3,7.9,1.5c3.6,1.7,5.7,4.5,6.3,8.5c0.1,0.8,0.2,1.6,0.3,2.4c0,0.7,0,1.5,0,2.2c0,0.2-0.1,0.3-0.1,0.5
				c-0.3,3.7-1.7,7-4.1,9.9c-4.3,5.1-10,7.6-16.4,8.6c-1,0.1-2.1,0.2-3.1,0.3C60.8,84.4,59.6,84.4,58.3,84.4z M48.2,63.3
				c0.1-0.2,0.3-0.5,0.4-0.7c1-2.4,2.3-4.6,4.1-6.6c0.1-0.2,0.3-0.4,0.3-0.6c0-4.4-0.1-8.8-0.9-13.1c-0.4-2.1-1-4.1-1.5-6.2
				c-0.2-0.8,0.3-1.4,1-1.2c0.3,0.1,0.6,0.5,0.7,0.8c1.1,3,1.7,6.2,2,9.4c0.2,1.4,0.3,2.8,0.4,4.3c0.1-1,0.2-1.9,0.3-2.9
				c0.1-4.4-0.2-8.8-1.6-13.1c-0.6-1.9-1.4-3.7-3-5.1c-1.2-1.1-2.7-1.5-4.4-1.2c0.4,0.2,0.6,0.4,0.9,0.6c1.3,0.9,2.3,2,3.2,3.4
				c0.3,0.5,0.2,0.9-0.2,1.2c-0.4,0.3-0.9,0.2-1.2-0.2c-0.1-0.2-0.2-0.3-0.4-0.5c-0.8-1.1-1.7-2-2.8-2.7c-1-0.5-1.9-0.8-2.9-0.1
				c-0.2,0.1-0.3,0.2-0.5,0.3c-2.9,1.5-4.9,3.9-6.4,6.7c-3.4,6.7-4.1,13.9-2.8,21.2c0.1,0.3,0.2,0.4,0.5,0.4c3.5,0.3,6.9,1.3,10,2.9
				C44.9,61.2,46.5,62.2,48.2,63.3z M55.5,74.4c1.9-0.2,3.7-0.3,5.6-0.6c4.6-0.8,9-2.2,12.9-4.9c2.4-1.6,4.3-3.6,5.4-6.4
				c0.6-1.7,0.5-3.2-0.4-4.7c-1.2-1.8-2.7-3.3-4.7-4.2c-5.5-2.5-11-2.2-16.3,0.7c-6.2,3.5-10,10.8-8.9,18.8c0,0.2,0.3,0.5,0.5,0.5
				C51.5,74.2,53.5,74.3,55.5,74.4z M47.1,68.4c-0.6,0.9-1.5,3.2-1.7,4.5c-0.3,2.5,0.3,3.6,2.7,4.5c1.9,0.7,3.9,0.9,5.9,0.9
				c8.3,0.3,16-1.5,22.8-6.5c0.5-0.4,1-0.3,1.3,0.1c0.3,0.4,0.2,0.9-0.3,1.3c-2,1.5-4.1,2.7-6.3,3.7c-3.7,1.6-7.6,2.6-11.6,3
				c-2.7,0.3-5.5,0.4-8.2,0c-1.1-0.1-2.2-0.4-3.3-0.5c0.7,0.5,1.4,1,2.2,1.4c2.4,1.1,5,1.7,7.6,1.8c6,0.3,11.6-0.8,16.8-3.9
				c4.3-2.6,7.2-6.3,8.4-11.2c0-0.1,0-0.3,0.1-0.5c-0.7,0.9-1.3,1.7-1.9,2.5c-0.4,0.5-0.8,0.6-1.3,0.3c-0.5-0.4-0.5-0.8-0.1-1.4
				c0.5-0.7,1.1-1.4,1.6-2.1c1.2-2,1.9-4.1,1.5-6.4c-0.5-3.1-2.5-5.1-5.3-6.4c-0.5-0.3-1.1-0.4-1.8-0.7c0.9,0.8,1.8,1.6,2.6,2.4
				c1.4,1.6,2.5,3.4,2.4,5.6c-0.1,1.7-0.7,3.2-1.6,4.6c-2,3.2-4.9,5.3-8.2,7C67,74.6,62,75.8,56.9,76c-2.6,0.1-5.1,0-7.6-0.6
				c-1.7-0.5-1.9-0.6-2-2.3C47.2,71.5,47.1,69.9,47.1,68.4z M47,64.8C43,61,33.6,58,28.9,59.1c2.3,4.4,5.5,7.9,9.7,10.5
				c2.3-1.4,4.7-2.5,7.3-3.2c0.1,0,0.3-0.1,0.3-0.2C46.6,65.7,46.8,65.3,47,64.8z M61.8,50.7c0.1,0,0.2,0,0.2,0
				c1.8-0.4,3.7-0.6,5.6-0.5c0.4,0,0.6-0.1,0.8-0.5c1.7-3.1,2.8-6.5,3.1-10.1c0.1-1.4,0-2.7,0-4.2c-0.3,0.1-0.5,0.2-0.7,0.3
				c-3.4,1.9-6.3,4.4-8.6,7.6c-0.6,0.8-0.9,1.6-0.8,2.7C61.7,47.6,61.7,49.2,61.8,50.7z M45.1,68.4c-5.8,2.1-10.3,5.6-13.6,10.8
				c4.6,0.7,9,0.3,13.3-1.3C43,74.7,43.8,71.6,45.1,68.4z M55.8,53.2c1.2-0.6,2.4-1.2,3.7-1.7c0.4-0.2,0.5-0.3,0.5-0.7
				c-0.2-2.1-0.2-4.2-0.5-6.3c-0.6-3.8-1.8-7.3-3.9-10.6c-0.1-0.1-0.1-0.2-0.2-0.2c-0.1-0.1-0.1-0.2-0.2-0.2
				C57,40,57,46.6,55.8,53.2z"/>
		</g>
	</g>
	<g>
		<path class="st22" d="M10.9,37l-9-5l0.9-1.6c0.4-0.6,0.7-1.1,0.9-1.4s0.5-0.5,0.8-0.6c0.4-0.2,0.8-0.2,1.2-0.2
			c0.4,0,0.9,0.2,1.3,0.4c0.9,0.5,1.4,1.1,1.5,1.8c0.1,0.7-0.1,1.6-0.7,2.6l-0.5,0.9l4,2.3L10.9,37z M6.6,33.5L6.9,33
			c0.6-1,0.8-1.7,0.7-2.2c-0.1-0.5-0.4-0.9-1-1.3c-0.3-0.1-0.5-0.2-0.8-0.3s-0.5,0-0.8,0c-0.3,0.1-0.5,0.2-0.7,0.4
			c-0.2,0.2-0.5,0.7-0.9,1.3l-0.3,0.6L6.6,33.5z"/>
		<path class="st22" d="M14.5,31.1l-8.3-6.2l0.6-0.8l7.6,5.6l2.1-2.8l0.7,0.5L14.5,31.1z"/>
		<path class="st22" d="M16.9,27.6l-4.4-10.8l10.7,4.5L22.4,22L19,20.5l-3,3l1.5,3.4L16.9,27.6z M15.7,22.7l2.5-2.5l-4.4-1.9
			L15.7,22.7z"/>
		<path class="st22" d="M23.7,20.9l-6-8.9L28.6,15L24,8.2l0.7-0.5l6,8.8l-10.9-3.1l4.7,6.9L23.7,20.9z"/>
		<path class="st22" d="M34.1,14.6L30.3,6l-2.6,1.2l-0.4-0.8l6.1-2.7l0.4,0.8l-2.6,1.2l3.8,8.6L34.1,14.6z"/>
		<path class="st22" d="M38.7,12.8l-2.8-9.9l4.9-1.4l0.2,0.8l-4,1.1l0.9,3.1l4-1.1l0.2,0.8l-4,1.1l1.2,4.3l4-1.1l0.2,0.8L38.7,12.8z"
			/>
		<path class="st22" d="M44.6,9.4l0.7-0.5c0.2,0.5,0.5,0.8,0.9,1.1s0.9,0.3,1.4,0.2c0.6-0.1,1.1-0.3,1.4-0.8c0.3-0.4,0.4-1,0.3-1.7
			c-0.1-0.5-0.2-0.9-0.5-1.2c-0.3-0.3-0.9-0.6-1.7-0.9c-1.1-0.4-1.8-0.8-2.2-1.2c-0.4-0.4-0.6-0.8-0.7-1.4c-0.1-0.7,0.1-1.4,0.5-1.9
			s1-0.8,1.8-0.9c0.5-0.1,1,0,1.4,0.1c0.4,0.2,0.8,0.5,1.1,0.9l-0.7,0.5c-0.2-0.3-0.4-0.5-0.7-0.6C47.3,1,46.9,1,46.6,1
			c-0.5,0.1-0.9,0.3-1.1,0.6c-0.3,0.3-0.4,0.8-0.3,1.3c0.1,0.7,0.8,1.3,2,1.8c0.2,0.1,0.4,0.1,0.5,0.2c0.9,0.4,1.6,0.7,1.9,1.1
			c0.3,0.4,0.6,0.9,0.7,1.6c0.1,0.9,0,1.7-0.5,2.3c-0.5,0.6-1.2,1-2.1,1.1c-0.7,0.1-1.3,0-1.8-0.3C45.4,10.4,44.9,10,44.6,9.4z"/>
		<path class="st22" d="M56.4,10.3L57.2,0l0.9,0.1l-0.8,9.4l3.5,0.3l-0.1,0.9L56.4,10.3z"/>
		<path class="st22" d="M73,8.2c-0.2,0.7-0.5,1.3-0.9,1.9c-0.4,0.6-1,1-1.6,1.4c-0.6,0.4-1.3,0.6-2,0.7s-1.4,0-2.1-0.1
			c-0.7-0.2-1.4-0.5-1.9-0.9c-0.6-0.4-1.1-1-1.4-1.6c-0.4-0.6-0.6-1.3-0.7-2c-0.1-0.7-0.1-1.4,0.1-2.1c0.2-0.7,0.5-1.4,0.9-1.9
			c0.4-0.6,1-1,1.6-1.4c0.6-0.4,1.3-0.6,2-0.7c0.7-0.1,1.4,0,2.2,0.2c0.7,0.2,1.4,0.5,2,0.9C71.5,3,72,3.5,72.4,4.1
			c0.4,0.6,0.6,1.3,0.7,2C73.2,6.8,73.1,7.5,73,8.2z M66.5,11.3c0.6,0.2,1.2,0.2,1.8,0.1c0.6-0.1,1.1-0.3,1.7-0.6
			c0.5-0.3,1-0.7,1.3-1.2c0.4-0.5,0.6-1,0.8-1.6c0.2-0.6,0.2-1.2,0.1-1.8C72,5.6,71.8,5,71.5,4.5c-0.3-0.5-0.7-1-1.2-1.3
			c-0.5-0.4-1-0.6-1.6-0.8c-0.6-0.2-1.2-0.2-1.8-0.1s-1.1,0.3-1.7,0.6c-0.5,0.3-1,0.7-1.3,1.2c-0.4,0.5-0.6,1-0.8,1.6
			c-0.2,0.6-0.2,1.2-0.1,1.8s0.3,1.2,0.6,1.7c0.3,0.5,0.7,1,1.2,1.3C65.3,10.9,65.9,11.1,66.5,11.3z"/>
		<path class="st22" d="M84.3,10.3c-0.3-0.6-0.6-1.2-0.9-1.6C83,8.3,82.5,7.9,82,7.6c-1.2-0.6-2.3-0.7-3.5-0.4s-2,1.2-2.6,2.4
			c-0.3,0.6-0.5,1.2-0.6,1.8c-0.1,0.6,0,1.2,0.2,1.7c0.2,0.6,0.5,1.1,0.8,1.5c0.4,0.4,0.8,0.8,1.4,1.1c0.5,0.3,1.1,0.4,1.7,0.5
			c0.6,0.1,1.2,0.1,1.8-0.1l-0.5,1c-0.6,0-1.2,0-1.8-0.1c-0.6-0.1-1.1-0.3-1.6-0.6c-0.7-0.3-1.2-0.8-1.7-1.3c-0.5-0.6-0.8-1.2-1-1.8
			c-0.2-0.7-0.3-1.4-0.2-2.1c0.1-0.7,0.3-1.4,0.7-2.1c0.4-0.7,0.8-1.3,1.3-1.7c0.5-0.5,1.1-0.8,1.8-1c0.6-0.2,1.3-0.3,2.1-0.2
			c0.7,0.1,1.4,0.3,2.1,0.6c0.6,0.3,1.1,0.7,1.5,1.1c0.4,0.4,0.7,0.9,1,1.4L84.3,10.3z"/>
		<path class="st22" d="M80.6,17.9l10.2-5.6l-3.2,11.1l-0.8-0.6l1.1-3.6l-3.3-2.6l-3.2,1.9L80.6,17.9z M85.3,16.1l2.8,2.2l1.4-4.6
			L85.3,16.1z"/>
		<path class="st22" d="M88,24.1l7.5-7.1l0.6,0.7l-6.8,6.5l2.4,2.6l-0.6,0.6L88,24.1z"/>
		<path class="st22" d="M91.8,28.2l8.4-6.1l3,4.1l-0.7,0.5l-2.4-3.4l-2.6,1.9l2.4,3.4l-0.7,0.5l-2.4-3.4l-3.6,2.6l2.4,3.4l-0.7,0.5
			L91.8,28.2z"/>
		<path class="st22" d="M97,32.5l0.8,0.5c-0.4,0.4-0.6,0.8-0.7,1.2c-0.1,0.5,0,0.9,0.2,1.4c0.3,0.6,0.7,0.9,1.2,1.1
			c0.5,0.1,1.1,0.1,1.7-0.3c0.4-0.2,0.7-0.5,0.9-0.9s0.3-1,0.3-1.9c0-1.2,0.1-2,0.3-2.5c0.2-0.5,0.6-0.9,1.1-1.2
			c0.6-0.3,1.3-0.4,1.9-0.2c0.6,0.2,1.1,0.7,1.5,1.4c0.2,0.5,0.4,0.9,0.3,1.3c0,0.4-0.2,0.9-0.4,1.3l-0.7-0.4
			c0.2-0.3,0.3-0.6,0.3-0.9c0-0.3-0.1-0.6-0.2-1c-0.2-0.4-0.6-0.7-1-0.9c-0.4-0.1-0.8-0.1-1.3,0.2c-0.6,0.3-1,1.2-1,2.5
			c0,0.2,0,0.4,0,0.6c0,1-0.2,1.7-0.4,2.2c-0.2,0.5-0.7,0.9-1.3,1.2c-0.8,0.4-1.6,0.5-2.3,0.3c-0.7-0.2-1.3-0.8-1.7-1.6
			c-0.3-0.6-0.4-1.2-0.4-1.8C96.3,33.6,96.5,33.1,97,32.5z"/>
	</g>
	<g>
		<path class="st22" d="M0,84.1L9.7,79l0.9,1.8c0.4,0.7,0.6,1.2,0.7,1.6c0.1,0.4,0.1,0.7,0.1,1.1c-0.1,0.4-0.2,0.8-0.5,1.2
			c-0.3,0.4-0.7,0.7-1.1,0.9c-0.9,0.5-1.7,0.6-2.4,0.3s-1.3-1-1.9-2.1l-0.5-1L0.5,85L0,84.1z M5.6,82.3l0.3,0.6
			C6.5,84,7,84.6,7.5,84.9c0.5,0.2,1,0.2,1.7-0.2c0.3-0.2,0.5-0.3,0.7-0.5c0.2-0.2,0.3-0.4,0.4-0.7c0.1-0.3,0.1-0.6,0-0.9
			c-0.1-0.3-0.3-0.9-0.7-1.6l-0.3-0.6L5.6,82.3z"/>
		<path class="st22" d="M4.2,91.6l9-6.3l0.6,0.8l-8.2,5.8l2.2,3.1L7,95.4L4.2,91.6z"/>
		<path class="st22" d="M7.5,96.3L19.1,92L14,103.2l-0.7-0.8l1.7-3.6l-3.1-3.3l-3.7,1.5L7.5,96.3z M12.8,95.2l2.6,2.8l2.2-4.6
			L12.8,95.2z"/>
		<path class="st22" d="M16,104.8l6.6-9.3l1,12l5-7.1l0.8,0.5l-6.5,9.2l-1-12l-5.1,7.2L16,104.8z"/>
		<path class="st22" d="M28.3,112.5l4.3-9.1l-2.7-1.3l0.4-0.8l6.4,3l-0.4,0.8l-2.7-1.3l-4.3,9.1L28.3,112.5z"/>
		<path class="st22" d="M34.4,115.1l3.2-10.5l5.2,1.6l-0.3,0.9l-4.2-1.3l-1,3.3l4.2,1.3l-0.3,0.9L37,110l-1.4,4.5l4.2,1.3l-0.3,0.9
			L34.4,115.1z"/>
		<path class="st22" d="M42.4,115.4l0.9-0.3c0.1,0.6,0.3,1,0.6,1.4c0.3,0.4,0.8,0.6,1.3,0.6c0.7,0.1,1.3,0,1.7-0.4s0.7-0.9,0.8-1.6
			c0.1-0.5,0-1-0.2-1.4c-0.2-0.4-0.7-0.9-1.5-1.4c-1-0.7-1.7-1.4-2-1.8c-0.3-0.5-0.4-1-0.3-1.7c0.1-0.8,0.5-1.4,1.1-1.8
			s1.3-0.5,2.1-0.4c0.5,0.1,1,0.3,1.4,0.6c0.4,0.3,0.6,0.7,0.8,1.2l-0.8,0.3c-0.1-0.3-0.3-0.6-0.6-0.8c-0.3-0.2-0.6-0.3-1-0.4
			c-0.5-0.1-1,0-1.3,0.3c-0.4,0.3-0.6,0.7-0.7,1.2c-0.1,0.8,0.4,1.6,1.6,2.4c0.2,0.2,0.4,0.3,0.5,0.4c0.8,0.6,1.4,1.2,1.6,1.7
			s0.3,1.1,0.2,1.8c-0.1,1-0.5,1.7-1.2,2.2c-0.7,0.5-1.5,0.7-2.4,0.5c-0.7-0.1-1.3-0.4-1.7-0.8C42.9,116.8,42.6,116.2,42.4,115.4z"
			/>
		<path class="st22" d="M56.4,118.4l-0.7-10.9l1-0.1l0.7,10l3.8-0.2l0.1,0.9L56.4,118.4z"/>
		<path class="st22" d="M72.9,109.9c0.2,0.8,0.2,1.5,0.1,2.2c-0.1,0.7-0.4,1.5-0.8,2.1c-0.4,0.7-0.9,1.2-1.6,1.7s-1.3,0.8-2.1,1
			c-0.8,0.2-1.5,0.2-2.3,0.1s-1.5-0.4-2.1-0.8c-0.7-0.4-1.2-0.9-1.7-1.5c-0.4-0.6-0.8-1.3-1-2c-0.2-0.8-0.2-1.5-0.1-2.3
			c0.1-0.7,0.4-1.5,0.8-2.1c0.4-0.7,0.9-1.2,1.5-1.7c0.6-0.4,1.3-0.8,2.1-0.9c0.8-0.2,1.6-0.2,2.3-0.1c0.8,0.1,1.5,0.4,2.1,0.7
			c0.7,0.4,1.2,0.9,1.7,1.5C72.4,108.5,72.8,109.2,72.9,109.9z M68.4,116.1c0.6-0.2,1.2-0.4,1.7-0.8c0.5-0.4,0.9-0.8,1.3-1.4
			c0.3-0.6,0.5-1.2,0.6-1.8c0.1-0.6,0.1-1.3-0.1-1.9c-0.2-0.6-0.4-1.2-0.8-1.7c-0.4-0.5-0.8-0.9-1.4-1.3c-0.6-0.3-1.1-0.6-1.8-0.6
			c-0.6-0.1-1.3-0.1-1.9,0.1c-0.6,0.2-1.2,0.4-1.7,0.8c-0.5,0.4-0.9,0.8-1.3,1.4c-0.3,0.6-0.5,1.2-0.6,1.8c-0.1,0.6-0.1,1.3,0.1,1.9
			c0.2,0.6,0.4,1.2,0.8,1.7c0.4,0.5,0.8,0.9,1.4,1.3c0.6,0.3,1.1,0.6,1.8,0.7S67.8,116.2,68.4,116.1z"/>
		<path class="st22" d="M81.5,101.7c-0.7-0.2-1.4-0.2-2-0.2c-0.6,0.1-1.2,0.2-1.8,0.5c-1.3,0.6-2.1,1.6-2.5,2.8
			c-0.4,1.2-0.2,2.4,0.4,3.7c0.3,0.6,0.7,1.2,1.2,1.6c0.5,0.4,1,0.7,1.6,0.9c0.6,0.2,1.2,0.3,1.8,0.2c0.6-0.1,1.2-0.2,1.8-0.5
			c0.6-0.3,1.1-0.7,1.5-1.1s0.8-1,1.1-1.6l0.5,1c-0.3,0.5-0.7,1-1.2,1.5c-0.5,0.4-0.9,0.8-1.5,1.1c-0.7,0.4-1.4,0.6-2.2,0.7
			c-0.8,0.1-1.5,0-2.2-0.2c-0.7-0.2-1.4-0.6-1.9-1.1c-0.6-0.5-1-1.1-1.4-1.9c-0.4-0.7-0.6-1.5-0.7-2.2s0-1.5,0.2-2.2
			c0.2-0.7,0.6-1.3,1.1-1.9c0.5-0.6,1.1-1.1,1.8-1.4c0.6-0.3,1.2-0.5,1.9-0.6c0.6-0.1,1.2-0.1,1.8,0L81.5,101.7z"/>
		<path class="st22" d="M87.2,108.7l-3.2-12l10.6,6.2l-0.9,0.7l-3.4-2.1l-3.5,2.8L88,108L87.2,108.7z M86.6,103.3l3-2.3l-4.4-2.6
			L86.6,103.3z"/>
		<path class="st22" d="M96.1,101.2l-7.9-7.6l0.7-0.7l7.2,6.9l2.6-2.7l0.7,0.6L96.1,101.2z"/>
		<path class="st22" d="M101,95.9l-8.9-6.5l3.2-4.4l0.8,0.6l-2.6,3.6l2.8,2l2.6-3.6l0.8,0.6L97,91.8l3.8,2.8l2.6-3.6l0.8,0.6
			L101,95.9z"/>
		<path class="st22" d="M104,88.5l0-1c0.6,0.1,1.1,0.1,1.5-0.1c0.4-0.2,0.8-0.6,1.1-1c0.3-0.6,0.4-1.2,0.2-1.7
			c-0.2-0.5-0.6-1-1.2-1.3c-0.5-0.2-0.9-0.3-1.3-0.3c-0.4,0.1-1.1,0.4-1.9,0.9c-1,0.7-1.8,1.1-2.4,1.2c-0.6,0.1-1.1,0-1.7-0.3
			c-0.7-0.4-1.1-0.9-1.3-1.6s-0.1-1.4,0.3-2.2c0.3-0.5,0.6-0.9,1-1.1c0.4-0.3,0.9-0.4,1.4-0.4l0.1,0.9c-0.4,0-0.7,0.1-1,0.3
			s-0.5,0.4-0.7,0.8c-0.3,0.5-0.3,0.9-0.2,1.4c0.1,0.4,0.4,0.8,0.9,1c0.7,0.4,1.6,0.1,2.8-0.7c0.2-0.1,0.4-0.3,0.5-0.3
			c0.9-0.6,1.6-0.9,2.2-1c0.6-0.1,1.1,0.1,1.8,0.4c0.9,0.5,1.4,1.1,1.7,1.9c0.2,0.8,0.1,1.6-0.3,2.5c-0.3,0.6-0.8,1.1-1.3,1.4
			C105.4,88.5,104.7,88.6,104,88.5z"/>
	</g>
</g>
</svg>
