<?xml version="1.0" encoding="utf-8"?>
<!-- Generator: Adobe Illustrator 22.1.0, SVG Export Plug-In . SVG Version: 6.00 Build 0)  -->
<svg version="1.1" id="Calque_1" xmlns="http://www.w3.org/2000/svg" xmlns:xlink="http://www.w3.org/1999/xlink" x="0px" y="0px"
	 viewBox="0 0 117.9 116.1" style="enable-background:new 0 0 117.9 116.1;" xml:space="preserve">
<style type="text/css">
	.st0{fill:#815938;}
	.st1{fill:#6B4A00;}
	.st2{fill:#937A56;}
	.st3{fill:#FFFFFF;}
	.st4{fill:#EFD5D5;}
	.st5{fill:#EDC0C0;}
	.st6{fill:#C19680;}
	.st7{fill:#9C8965;}
	.st8{fill:#FEFEFE;}
	.st9{fill:#847A61;}
	.st10{fill:#C5B791;}
	.st11{fill:#B7A67D;}
	.st12{fill:#EDE9DD;}
	.st13{fill:#A89566;}
	.st14{fill:#A28D5B;}
	.st15{fill:#D9CEAF;}
	.st16{fill:#E4DDC7;}
	.st17{fill:#F7F6F1;}
	.st18{fill:#B09E72;}
	.st19{fill:#FDFDFD;}
	.st20{fill:#F4F1EB;}
	.st21{fill:#FFCF87;}
	.st22{fill:black;}
</style>
<g>
	<g>
		<path class="st22" d="M10.1,49.3l-9.2-2.1l1-4.5l0.8,0.2l-0.9,3.7l2.9,0.7l0.8-3.6l0.8,0.2l-0.8,3.6l4.7,1.1L10.1,49.3z"/>
		<path class="st22" d="M13.6,37.9l-0.4,1l-5.4,1.5l-0.2,0.5l4.2,1.6l-0.3,0.8l-8.8-3.3l0.6-1.6c0.4-1,0.8-1.6,1.4-1.9s1.3-0.3,2.1,0
			c0.7,0.3,1.1,0.7,1.4,1.2c0.2,0.6,0.2,1.2,0,1.9L13.6,37.9z M3.8,39.4l3.3,1.2l0.3-0.8c0.3-0.7,0.4-1.3,0.2-1.7
			c-0.1-0.4-0.5-0.7-1.1-0.9C6,37,5.5,37,5.1,37.2c-0.4,0.2-0.7,0.7-1,1.4L3.8,39.4z"/>
		<path class="st22" d="M13.5,38.2l-6.5-8.4l10.5,1.3L16.9,32l-3.4-0.5l-1.9,3.4l2.2,2.6L13.5,38.2z M11.2,34.2l1.6-2.9l-4.4-0.6
			L11.2,34.2z"/>
		<path class="st22" d="M18,30.6l-7.7-5.5l0.5-0.7l7.7,5.5L18,30.6z"/>
		<path class="st22" d="M19.1,17.4c-0.6,0.1-1.2,0.2-1.6,0.5s-0.9,0.5-1.3,0.9c-0.8,0.9-1.2,1.9-1.2,3c0.1,1.1,0.5,2,1.4,2.9
			c0.5,0.4,0.9,0.7,1.4,0.9c0.5,0.2,1,0.3,1.6,0.3c0.5,0,1-0.1,1.5-0.4c0.5-0.2,0.9-0.5,1.3-1c0.4-0.4,0.7-0.8,0.9-1.4
			s0.3-1,0.4-1.6l0.7,0.7c-0.1,0.5-0.3,1-0.5,1.5c-0.2,0.5-0.5,0.9-0.9,1.3c-0.5,0.5-1,0.9-1.6,1.2c-0.6,0.3-1.2,0.5-1.8,0.5
			c-0.6,0-1.3-0.1-1.9-0.3c-0.6-0.2-1.2-0.6-1.7-1.1c-0.5-0.5-0.9-1-1.2-1.6c-0.3-0.6-0.4-1.2-0.5-1.8c0-0.6,0.1-1.2,0.3-1.9
			c0.2-0.6,0.6-1.2,1-1.7c0.4-0.4,0.8-0.8,1.3-1.1c0.5-0.3,1-0.4,1.5-0.5L19.1,17.4z"/>
		<path class="st22" d="M25.9,21.6l-5.6-7.5l0.7-0.5l2.3,3.1l4.1-3.1L25,10.5l0.7-0.5l5.6,7.5L30.7,18l-2.9-3.9l-4.1,3.1l2.9,3.9
			L25.9,21.6z"/>
		<path class="st22" d="M33.1,16.5l-4.4-8.3L32.8,6l0.4,0.7l-3.4,1.8l1.4,2.6l3.4-1.8l0.4,0.7l-3.4,1.8l1.9,3.6l3.4-1.8l0.4,0.7
			L33.1,16.5z"/>
		<path class="st22" d="M42.9,12.6l-5.5-6.2l1.5,7.1l-0.8,0.3L36.4,4l6,6.9l1-9.1l4.2,9L46.7,11l-2.9-6.6L42.9,12.6z"/>
		<path class="st22" d="M48.9,10.6l-1.3-9.3l4.6-0.6l0.1,0.8L48.6,2L49,4.9l3.8-0.5l0.1,0.8l-3.8,0.5l0.5,4l3.8-0.5l0.1,0.8
			L48.9,10.6z"/>
		<path class="st22" d="M55.3,9.8L55.6,0L62,8.1l0.2-7.5l0.8,0l-0.3,9.7l-6.4-8.1l-0.2,7.6L55.3,9.8z"/>
		<path class="st22" d="M66.4,10.7L68,2.3l-2.5-0.5L65.6,1l5.9,1.1l-0.2,0.8l-2.5-0.5l-1.6,8.4L66.4,10.7z"/>
		<path class="st22" d="M74.3,12.8l3.6-8.7l4.3,1.8l-0.3,0.7l-3.5-1.5l-1.1,2.7l3.4,1.4l-0.3,0.7L77,8.7l-1.9,4.5L74.3,12.8z"/>
		<path class="st22" d="M90.7,16.5c-0.4,0.6-0.8,1-1.3,1.4s-1.1,0.6-1.8,0.7c-0.7,0.1-1.3,0.1-2,0c-0.6-0.1-1.3-0.4-1.8-0.7
			c-0.6-0.4-1-0.8-1.4-1.4c-0.4-0.5-0.6-1.1-0.8-1.8c-0.1-0.7-0.2-1.3,0-1.9c0.1-0.6,0.4-1.2,0.7-1.8c0.4-0.6,0.8-1,1.4-1.4
			c0.5-0.4,1.1-0.6,1.8-0.8c0.7-0.1,1.3-0.1,1.9,0C88,9,88.6,9.2,89.2,9.6c0.6,0.4,1.1,0.8,1.4,1.4c0.4,0.5,0.6,1.1,0.8,1.8
			c0.1,0.7,0.2,1.3,0,1.9C91.3,15.3,91.1,15.9,90.7,16.5z M84.2,17.2c0.5,0.3,1,0.5,1.5,0.6s1.1,0.1,1.6,0c0.5-0.1,1-0.3,1.5-0.7
			c0.5-0.3,0.8-0.7,1.1-1.2c0.3-0.5,0.5-1,0.6-1.5c0.1-0.5,0.1-1.1,0-1.6c-0.1-0.5-0.3-1-0.6-1.5s-0.7-0.8-1.2-1.1
			c-0.5-0.3-1-0.5-1.5-0.6c-0.5-0.1-1.1-0.1-1.6,0c-0.6,0.1-1.1,0.3-1.5,0.6c-0.4,0.3-0.8,0.7-1.1,1.2c-0.3,0.5-0.5,1-0.6,1.5
			s-0.1,1.1,0,1.6c0.1,0.5,0.3,1,0.6,1.5C83.3,16.6,83.7,16.9,84.2,17.2z"/>
		<path class="st22" d="M93.3,25.5l-0.8-0.7l0.7-5.5l-0.4-0.4l-3.1,3.3l-0.6-0.6l6.5-6.8l1.3,1.2c0.7,0.7,1.1,1.4,1.2,2
			s-0.2,1.3-0.8,1.9c-0.5,0.5-1.1,0.8-1.7,0.8c-0.6,0-1.2-0.3-1.7-0.8L93.3,25.5z M95.7,15.9l-2.4,2.5L94,19
			c0.6,0.5,1.1,0.8,1.5,0.9c0.4,0,0.8-0.2,1.2-0.6c0.4-0.5,0.6-0.9,0.6-1.3c0-0.4-0.4-0.9-0.9-1.4L95.7,15.9z"/>
		<path class="st22" d="M96.2,29.8l4.1-7.1l-6.2,3.7l-0.5-0.7l8.7-4.8l-4.6,7.9l9-1.9l-7.2,6.8l-0.5-0.7l5.4-4.8L96.2,29.8z"/>
		<path class="st22" d="M108.5,30.8l0.4,0.8l-5.6,2.6c-0.8,0.4-1.4,0.9-1.6,1.5c-0.2,0.6-0.2,1.3,0.2,2.1c0.4,0.8,0.8,1.3,1.4,1.5
			c0.6,0.2,1.3,0.1,2.1-0.3l5.6-2.6l0.4,0.8l-5.3,2.5c-1.2,0.5-2.1,0.7-2.9,0.4c-0.8-0.2-1.5-0.9-1.9-1.9c-0.5-1-0.6-2-0.2-2.7
			s1.1-1.4,2.2-2L108.5,30.8z"/>
		<path class="st22" d="M103.4,42.8l9-2.7l0.2,0.8l-8.2,2.5l0.9,3.1l-0.8,0.2L103.4,42.8z"/>
		<path class="st22" d="M104.8,47.8l9.3-1.6l0.8,4.6l-0.8,0.1l-0.6-3.8l-2.9,0.5l0.6,3.8l-0.8,0.1l-0.6-3.8l-4,0.7l0.6,3.8l-0.8,0.1
			L104.8,47.8z M115.3,47.5l2.4,1l0.2,1l-2.5-1.4L115.3,47.5z"/>
	</g>
	<g>
		<path class="st22" d="M0,72.5l8.9-2.9l1.4,4.4l-0.8,0.2l-1.2-3.6l-2.8,0.9L6.8,75L6,75.3l-1.1-3.5l-4.6,1.5L0,72.5z"/>
		<path class="st22" d="M4.9,84.5l-0.4-0.9l2.7-4.9l-0.2-0.5l-4.1,1.9l-0.4-0.8l8.5-4l0.7,1.6c0.4,0.9,0.6,1.7,0.4,2.3
			c-0.2,0.6-0.6,1.1-1.4,1.5c-0.7,0.3-1.3,0.4-1.8,0.1c-0.6-0.2-1-0.7-1.3-1.4L4.9,84.5z M10.6,76.5l-3.1,1.5l0.4,0.8
			c0.3,0.7,0.7,1.2,1.1,1.3c0.4,0.2,0.8,0.1,1.4-0.1c0.6-0.3,0.9-0.6,1-1s0-1-0.3-1.7L10.6,76.5z"/>
		<path class="st22" d="M5.2,85.2l10.5-1.8L9.5,92L9,91.2l2-2.7L9,85.2l-3.4,0.7L5.2,85.2z M9.8,85.1l1.8,2.8l2.6-3.6L9.8,85.1z"/>
		<path class="st22" d="M10.6,93.2l7.3-5.9l0.5,0.7l-7.3,5.9L10.6,93.2z"/>
		<path class="st22" d="M23.8,96c0-0.6-0.2-1.2-0.4-1.6c-0.2-0.5-0.5-0.9-0.9-1.3c-0.9-0.9-1.8-1.3-2.9-1.3c-1.1,0-2.1,0.5-2.9,1.3
			c-0.4,0.4-0.8,0.9-1,1.4c-0.2,0.5-0.3,1-0.3,1.5c0,0.5,0.1,1,0.3,1.5c0.2,0.5,0.5,0.9,0.9,1.3c0.4,0.4,0.8,0.7,1.3,0.9
			c0.5,0.2,1,0.4,1.6,0.4l-0.7,0.7c-0.5-0.1-1-0.3-1.5-0.6c-0.5-0.3-0.9-0.6-1.3-0.9c-0.5-0.5-0.9-1-1.1-1.6s-0.4-1.2-0.4-1.9
			c0-0.6,0.1-1.3,0.4-1.9c0.3-0.6,0.6-1.1,1.1-1.7c0.5-0.5,1-0.9,1.6-1.1c0.6-0.3,1.2-0.4,1.8-0.4c0.6,0,1.2,0.1,1.9,0.4
			c0.6,0.3,1.2,0.6,1.6,1.1c0.4,0.4,0.8,0.9,1,1.3c0.2,0.5,0.4,1,0.5,1.5L23.8,96z"/>
		<path class="st22" d="M20.6,103.3l5.4-7.7l0.7,0.5l-2.2,3.1l4.2,2.9l2.2-3.1l0.7,0.5l-5.4,7.7l-0.7-0.5l2.8-4l-4.2-2.9l-2.8,4
			L20.6,103.3z"/>
		<path class="st22" d="M29,108.7l4.2-8.4l4.2,2.1l-0.4,0.7l-3.4-1.7l-1.3,2.6l3.4,1.7l-0.4,0.7l-3.4-1.7l-1.8,3.6l3.4,1.7l-0.4,0.7
			L29,108.7z"/>
		<path class="st22" d="M39.9,113.6l-1-8.2l-2.8,6.7l-0.8-0.3l4.1-9l1,9.1l6-6.9l-1.7,9.7l-0.8-0.3l1.4-7.1L39.9,113.6z"/>
		<path class="st22" d="M47.5,115.1l1.3-9.3l4.6,0.6l-0.1,0.8l-3.8-0.5l-0.4,2.9l3.8,0.5l-0.1,0.8l-3.8-0.5l-0.5,4l3.8,0.5l-0.1,0.8
			L47.5,115.1z"/>
		<path class="st22" d="M55,116l-0.2-9.8l6.8,7.7l-0.1-7.5l0.8,0l0.2,9.7l-6.8-7.8l0.1,7.6L55,116z"/>
		<path class="st22" d="M67.3,115.1l-1.5-8.5l-2.6,0.4l-0.1-0.8l6-1l0.1,0.8l-2.6,0.4l1.5,8.5L67.3,115.1z"/>
		<path class="st22" d="M76.8,112.8l-3.3-8.8l4.4-1.7l0.3,0.8l-3.6,1.3l1,2.8l3.4-1.3l0.3,0.8l-3.4,1.3l1.7,4.5L76.8,112.8z"/>
		<path class="st22" d="M89.8,101.2c0.3,0.6,0.5,1.2,0.6,1.8c0.1,0.6,0,1.3-0.2,1.9c-0.2,0.6-0.5,1.2-0.9,1.7s-0.9,0.9-1.5,1.3
			s-1.2,0.5-1.9,0.6c-0.6,0.1-1.3,0-1.9-0.1c-0.7-0.2-1.2-0.5-1.7-0.9c-0.5-0.4-0.9-0.9-1.3-1.5c-0.3-0.6-0.5-1.2-0.6-1.8
			c-0.1-0.6,0-1.3,0.2-1.9c0.2-0.6,0.5-1.2,0.9-1.7s0.9-0.9,1.5-1.3c0.6-0.3,1.2-0.6,1.9-0.6c0.6-0.1,1.3,0,1.9,0.1
			c0.7,0.2,1.2,0.5,1.7,0.9C89,100.2,89.4,100.7,89.8,101.2z M87.4,107.4c0.5-0.3,0.9-0.6,1.2-1c0.3-0.4,0.6-0.9,0.7-1.4
			c0.1-0.5,0.2-1.1,0.1-1.6c-0.1-0.5-0.2-1.1-0.5-1.6c-0.3-0.5-0.6-0.9-1.1-1.2c-0.4-0.3-0.9-0.6-1.5-0.7c-0.5-0.2-1.1-0.2-1.6-0.1
			c-0.5,0.1-1,0.2-1.5,0.5c-0.5,0.3-0.9,0.6-1.2,1c-0.3,0.4-0.6,0.9-0.7,1.4c-0.1,0.5-0.2,1.1-0.1,1.6c0.1,0.5,0.2,1.1,0.5,1.5
			c0.3,0.5,0.6,0.9,1.1,1.2c0.4,0.3,0.9,0.6,1.5,0.7c0.5,0.2,1.1,0.2,1.6,0.1C86.4,107.8,86.9,107.6,87.4,107.4z"/>
		<path class="st22" d="M98.7,99.7l-0.8,0.7l-5.4-1.3l-0.4,0.3l2.9,3.4l-0.7,0.5l-6-7.2l1.3-1.1c0.8-0.7,1.5-1,2.2-1
			c0.7,0,1.3,0.3,1.8,1c0.5,0.6,0.7,1.1,0.6,1.7s-0.4,1.1-1,1.6L98.7,99.7z M89.4,96.2l2.2,2.7l0.7-0.6c0.6-0.5,1-1,1-1.4
			s-0.1-0.8-0.5-1.3c-0.4-0.5-0.8-0.7-1.3-0.7c-0.4,0-0.9,0.2-1.5,0.7L89.4,96.2z"/>
		<path class="st22" d="M103.3,95.2l-7.9-2.4l5,5.2l-0.6,0.7l-6.6-7.3l8.7,2.7L98,85.8l8.2,5.5l-0.6,0.7l-5.9-4.1L103.3,95.2z"/>
		<path class="st22" d="M99.6,84.2l0.4-0.7l5.3,3.1c0.8,0.5,1.5,0.6,2.1,0.5c0.6-0.1,1.1-0.6,1.6-1.4c0.4-0.7,0.6-1.4,0.4-2
			c-0.2-0.6-0.7-1.1-1.5-1.6l-5.3-3.1l0.4-0.7l5.1,2.9c1.1,0.6,1.8,1.4,2,2.2c0.3,0.8,0.1,1.7-0.5,2.7c-0.6,1-1.3,1.6-2.1,1.8
			c-0.8,0.2-1.8,0-2.9-0.7L99.6,84.2z"/>
		<path class="st22" d="M112.4,80.2l-8.7-3.6l0.3-0.8l8,3.3l1.2-3l0.7,0.3L112.4,80.2z"/>
		<path class="st22" d="M105,70.3l-1.8-1.9l0.3-1l1.7,2.4L105,70.3z M114.6,74.5l-9.1-2.6l1.3-4.5l0.8,0.2l-1,3.7l2.8,0.8l1-3.7
			l0.8,0.2l-1,3.7l3.9,1.1l1-3.7l0.8,0.2L114.6,74.5z"/>
	</g>
	<g>
		<g>
			<path class="st22" d="M53.6,30.3c0.3,0.1,0.6,0.2,1,0.3c2.2,0.7,3.7,2.7,3.8,5c0,0.2,0,0.5,0,0.7c0,16.8,0,33.6,0,50.4
				c0,0.6-0.1,1.1-0.6,1.4c-0.2,0-0.4,0-0.6,0c-0.6-0.3-0.7-0.8-0.7-1.4c0-16.8,0-33.6,0-50.3c0-0.6-0.1-1.3-0.3-1.9
				c-0.6-1.7-2.5-2.6-4.3-2.2c-1.8,0.4-3,2-2.9,3.8c0.1,1.8,1.4,3.2,3.2,3.5c0.2,0,0.4,0,0.6,0.1c0.6,0.1,0.9,0.4,0.9,0.9
				c0,0.5-0.4,0.9-1,0.9c-2-0.1-3.5-0.9-4.6-2.5c-2.1-3.3-0.3-7.6,3.5-8.5c0.1,0,0.2-0.1,0.4-0.1C52.6,30.3,53.1,30.3,53.6,30.3z"/>
		</g>
		<g>
			<path class="st22" d="M50.2,68.1c0,3.3,0,6.7,0,10c0,0.2,0,0.4,0,0.6c-0.1,0.5-0.4,0.8-0.9,0.8c-0.5,0-0.8-0.3-0.9-0.7
				c0-0.2,0-0.4,0-0.6c0-6.6,0-13.2,0-19.9c0-2-1.2-3.5-3.2-3.8c-2-0.3-4,1.1-4.3,3.1c-0.3,2.1,1.1,4.1,3.1,4.3c0.2,0,0.4,0,0.6,0.1
				c0.6,0.1,1,0.5,0.9,1c0,0.5-0.5,0.9-1.1,0.9c-1.7-0.1-3.1-0.8-4.1-2.1c-1.5-1.9-1.6-4.4-0.4-6.4c1.2-2,3.6-3,5.9-2.6
				c2.2,0.5,4,2.3,4.4,4.6c0.1,0.4,0.1,0.8,0.1,1.2C50.2,61.7,50.2,64.9,50.2,68.1z"/>
		</g>
		<g>
			<path class="st22" d="M30.1,55.4c0-0.7,0.4-1.1,0.9-1.1c0.6,0,0.9,0.4,0.9,1.1c0,0.7-0.4,1.1-0.9,1.1
				C30.5,56.5,30.1,56.1,30.1,55.4z"/>
		</g>
		<g>
			<path class="st22" d="M33.9,51.6c0.7,0,1.1,0.4,1.1,0.9c0,0.6-0.4,0.9-1.1,0.9c-0.7,0-1.1-0.4-1.1-0.9
				C32.8,52,33.2,51.6,33.9,51.6z"/>
		</g>
		<g>
			<path class="st22" d="M28.2,53.5c-0.7,0-1.1-0.4-1.1-0.9c0-0.6,0.4-0.9,1.1-0.9c0.7,0,1.1,0.4,1.1,0.9
				C29.3,53.1,28.9,53.5,28.2,53.5z"/>
		</g>
		<g>
			<path class="st22" d="M32,49.7c0,0.7-0.4,1.1-0.9,1.1c-0.6,0-0.9-0.4-0.9-1.1c0-0.7,0.3-1.1,0.9-1.1C31.6,48.6,32,49,32,49.7z"/>
		</g>
		<g>
			<path class="st22" d="M64.9,68c0-3.2,0-6.4,0-9.6c0-3,1.9-5.3,4.8-5.8c2.9-0.5,5.8,1.6,6.3,4.6c0.5,3-1.6,5.9-4.5,6.4
				c-0.3,0-0.6,0.1-0.9,0.1c-0.6,0-1-0.3-1-0.9c0-0.5,0.3-0.9,0.9-1c1.2-0.1,2.3-0.5,3-1.5c1-1.3,1-3,0.1-4.4
				c-0.9-1.3-2.6-1.9-4.1-1.5c-1.6,0.5-2.7,1.8-2.7,3.5c0,6.7,0,13.4,0,20.1c0,0.2,0,0.4,0,0.6c-0.1,0.5-0.5,0.8-0.9,0.8
				c-0.5,0-0.8-0.3-0.9-0.8c0-0.2,0-0.4,0-0.6C64.9,74.7,64.9,71.4,64.9,68z"/>
		</g>
		<g>
			<path class="st22" d="M65.4,37.4c-0.7,0-1.1-0.4-1.1-0.9c0-0.6,0.4-0.9,1.1-0.9c0.7,0,1.1,0.4,1.1,0.9
				C66.5,37.1,66.1,37.4,65.4,37.4z"/>
		</g>
		<g>
			<path class="st22" d="M71,35.6c0.7,0,1.1,0.3,1.1,0.9c0,0.6-0.4,0.9-1.1,0.9c-0.7,0-1.1-0.4-1.1-0.9C69.9,35.9,70.3,35.6,71,35.6z
				"/>
		</g>
		<g>
			<path class="st22" d="M69.1,39.3c0,0.7-0.4,1.1-0.9,1.1c-0.6,0-0.9-0.5-0.9-1.1c0-0.7,0.4-1.1,1-1.1
				C68.8,38.2,69.1,38.6,69.1,39.3z"/>
		</g>
		<g>
			<path class="st22" d="M69.1,33.6c0,0.7-0.3,1.1-0.9,1.1c-0.6,0-0.9-0.4-0.9-1.1c0-0.7,0.3-1.1,0.9-1.1
				C68.8,32.5,69.1,32.9,69.1,33.6z"/>
		</g>
	</g>
</g>
</svg>
