<?xml version="1.0" encoding="utf-8"?>
<!-- Generator: Adobe Illustrator 22.1.0, SVG Export Plug-In . SVG Version: 6.00 Build 0)  -->
<svg version="1.1" id="Calque_1" xmlns="http://www.w3.org/2000/svg" xmlns:xlink="http://www.w3.org/1999/xlink" x="0px" y="0px"
	 viewBox="0 0 117.9 127.7" style="enable-background:new 0 0 117.9 127.7;" xml:space="preserve">
<style type="text/css">
	.st0{fill:#815938;}
	.st1{fill:#6B4A00;}
	.st2{fill:#937A56;}
	.st3{fill:#FFFFFF;}
	.st4{fill:#EFD5D5;}
	.st5{fill:#EDC0C0;}
	.st6{fill:#C19680;}
	.st7{fill:#9C8965;}
	.st8{fill:#FEFEFE;}
	.st9{fill:#847A61;}
	.st10{fill:#C5B791;}
	.st11{fill:#B7A67D;}
	.st12{fill:#EDE9DD;}
	.st13{fill:#A89566;}
	.st14{fill:#A28D5B;}
	.st15{fill:#D9CEAF;}
	.st16{fill:#E4DDC7;}
	.st17{fill:#F7F6F1;}
	.st18{fill:#B09E72;}
	.st19{fill:#FDFDFD;}
	.st220{fill:#F4F1EB;}
	.st221{fill:#FFCF87;}
	.st22{fill:black;}
</style>
<g>
	<g>
		<path class="st22" d="M12.8,50l-9.7-3.4l1.7-4.8l0.8,0.3L4.2,46l3,1.1l1.3-3.8l0.8,0.3l-1.3,3.8l5,1.7L12.8,50z"/>
		<path class="st22" d="M14.1,45.7l-7.5-8.9l11.5,1l-0.5,0.9L14,38.3l-1.9,3.8l2.5,2.8L14.1,45.7z M11.5,41.4l1.6-3.2l-4.8-0.5
			L11.5,41.4z"/>
		<path class="st22" d="M18.7,37.2l-8.3-6.1l1.1-1.4c0.5-0.6,0.8-1.1,1.1-1.3c0.3-0.2,0.5-0.4,0.8-0.5c0.4-0.1,0.8-0.1,1.2-0.1
			c0.4,0.1,0.8,0.3,1.2,0.5c0.4,0.3,0.7,0.7,0.9,1.2c0.1,0.5,0.1,0.9-0.1,1.4c0.5-0.5,1-0.7,1.6-0.8c0.6,0,1.1,0.1,1.7,0.5
			c0.4,0.3,0.7,0.6,0.9,0.9c0.2,0.3,0.3,0.7,0.4,1.1c0,0.4,0,0.8-0.2,1.2c-0.2,0.4-0.5,1-1.1,1.8L18.7,37.2z M14.6,33.1l0.7-0.9
			c0.5-0.7,0.8-1.3,0.7-1.7c0-0.5-0.3-0.9-0.8-1.3c-0.6-0.4-1.1-0.6-1.5-0.5c-0.4,0.1-0.9,0.5-1.4,1.2l-0.7,0.9L14.6,33.1z M18.6,36
			l0.7-1c0.4-0.5,0.7-0.9,0.8-1.2c0.1-0.2,0.2-0.5,0.2-0.7c0-0.3-0.1-0.6-0.3-0.8s-0.4-0.5-0.7-0.7c-0.3-0.2-0.7-0.4-1-0.5
			c-0.3-0.1-0.6,0-0.9,0.1c-0.2,0.1-0.4,0.2-0.6,0.4c-0.2,0.2-0.4,0.5-0.7,0.9L16,32.6l-0.7,1L18.6,36z"/>
		<path class="st22" d="M27.8,26.8L27,27.6l-6-0.9l-0.4,0.4l3.5,3.5l-0.7,0.7l-7.3-7.3l1.3-1.3c0.8-0.8,1.6-1.2,2.3-1.3
			s1.4,0.2,2.1,0.9c0.6,0.6,0.8,1.2,0.8,1.8c0,0.7-0.3,1.3-0.9,1.9L27.8,26.8z M17.3,23.8l2.7,2.7l0.7-0.7c0.6-0.6,1-1.1,1-1.6
			c0-0.4-0.2-0.9-0.6-1.4c-0.5-0.5-1-0.7-1.4-0.7c-0.5,0-1,0.4-1.6,1L17.3,23.8z"/>
		<path class="st22" d="M28.7,26.2l-6.4-8.1l0.7-0.6l6.4,8.1L28.7,26.2z"/>
		<path class="st22" d="M40.7,19.5l-1,0.6l-1.8-0.6c-0.3,0.5-0.6,1-1,1.4c-0.4,0.4-0.9,0.8-1.4,1.1c-0.6,0.4-1.3,0.6-2,0.7
			s-1.4,0-2.1-0.1c-0.7-0.2-1.4-0.5-1.9-0.9c-0.6-0.4-1-1-1.4-1.6c-0.4-0.6-0.6-1.3-0.7-2s0-1.4,0.2-2.1c0.2-0.7,0.5-1.3,1-1.9
			c0.4-0.6,1-1,1.7-1.4c0.7-0.4,1.3-0.6,2.1-0.7s1.4,0,2.1,0.1c0.7,0.2,1.3,0.5,1.9,0.9c0.6,0.4,1,1,1.4,1.6c0.4,0.7,0.6,1.3,0.7,2
			s0,1.4-0.2,2.1L40.7,19.5z M33.6,17.8l1-0.6l2.8,1c0.1-0.6,0.2-1.2,0.1-1.7c-0.1-0.6-0.3-1.1-0.6-1.6c-0.3-0.5-0.7-1-1.2-1.4
			c-0.5-0.4-1-0.6-1.6-0.8c-0.6-0.2-1.2-0.2-1.8-0.1c-0.6,0.1-1.2,0.3-1.7,0.6c-0.5,0.3-1,0.7-1.3,1.1c-0.4,0.5-0.6,1-0.8,1.6
			c-0.2,0.6-0.2,1.2-0.1,1.8c0.1,0.6,0.3,1.2,0.6,1.7c0.3,0.5,0.7,1,1.2,1.4c0.5,0.4,1,0.6,1.6,0.8c0.6,0.2,1.2,0.2,1.8,0.1
			c0.6-0.1,1.1-0.3,1.7-0.6c0.4-0.2,0.8-0.5,1.1-0.9c0.3-0.4,0.6-0.7,0.7-1.1L33.6,17.8z"/>
		<path class="st22" d="M38.8,8.6l0.9-0.3l1.9,6.5c0.3,1,0.7,1.6,1.3,2c0.6,0.3,1.3,0.4,2.3,0.1c0.9-0.3,1.5-0.7,1.8-1.3
			c0.3-0.6,0.3-1.4,0-2.4l-1.9-6.5L46,6.5l1.8,6.2c0.4,1.3,0.4,2.4,0,3.3c-0.4,0.8-1.2,1.4-2.4,1.8c-1.2,0.4-2.2,0.3-3-0.2
			c-0.8-0.5-1.4-1.4-1.8-2.7L38.8,8.6z"/>
		<path class="st22" d="M51.1,16L49.8,5.8l5.1-0.6L55,6l-4.1,0.5l0.4,3.2l4.1-0.5l0.1,0.9l-4.1,0.5l0.5,4.4l4.1-0.5l0.1,0.9L51.1,16z
			 M51.3,4.6l1.2-2.6l1.1-0.1L52,4.5L51.3,4.6z"/>
		<path class="st22" d="M62,15.4l1.1-10.3l5.1,0.6l-0.1,0.9L64,6.1l-0.4,3.2l4.1,0.5l-0.1,0.9l-4.1-0.5l-0.5,4.4l4.1,0.5L67.1,16
			L62,15.4z"/>
		<path class="st22" d="M69,16.2l3.1-10.3l4.5,10.4l2.3-7.9l0.8,0.2l-3,10.2L72.2,8.5l-2.4,8L69,16.2z"/>
		<path class="st22" d="M82.3,21.2l5.4-8.8l4.4,2.7l-0.5,0.8l-3.6-2.2l-1.7,2.8l3.4,2.1l-0.5,0.8l-3.4-2.1l-2.8,4.5L82.3,21.2z"/>
		<path class="st22" d="M93,29l-0.9-0.7l0.4-6.1L92,21.8l-3.2,3.8L88.1,25l6.6-7.9l1.5,1.2c0.9,0.7,1.4,1.4,1.5,2.1
			c0.1,0.7-0.1,1.4-0.7,2.2c-0.5,0.6-1.1,0.9-1.8,1s-1.3-0.2-2-0.7L93,29z M95,18.3l-2.4,2.9l0.7,0.6c0.7,0.6,1.2,0.8,1.7,0.8
			s0.9-0.2,1.3-0.8c0.5-0.5,0.6-1,0.6-1.5c-0.1-0.5-0.4-1-1.1-1.5L95,18.3z"/>
		<path class="st22" d="M92.7,28.6l11.1-3.6l-5.3,10.3l-0.7-0.8l1.8-3.3l-2.8-3.2l-3.5,1.3L92.7,28.6z M97.7,27.8l2.4,2.7l2.2-4.3
			L97.7,27.8z"/>
		<path class="st22" d="M98.9,35.9l9.3-5.4l-3.8,10.7l7.1-4.1l0.4,0.8l-9.2,5.3l3.8-10.7l-7.2,4.2L98.9,35.9z"/>
		<path class="st22" d="M114.4,50.2c0.3-0.6,0.4-1.2,0.4-1.8c0-0.6,0-1.1-0.2-1.7c-0.4-1.3-1.2-2.2-2.2-2.7c-1.1-0.5-2.2-0.6-3.5-0.2
			c-0.6,0.2-1.2,0.5-1.7,0.9c-0.5,0.4-0.8,0.8-1.1,1.3c-0.3,0.5-0.4,1.1-0.5,1.6s0,1.2,0.2,1.7c0.2,0.6,0.5,1.1,0.8,1.6
			c0.4,0.5,0.8,0.9,1.3,1.2l-1,0.3c-0.5-0.4-0.8-0.8-1.2-1.3c-0.3-0.5-0.6-1-0.8-1.5c-0.2-0.7-0.3-1.4-0.3-2.2c0-0.7,0.2-1.4,0.5-2
			c0.3-0.6,0.7-1.2,1.3-1.6s1.2-0.8,1.9-1c0.7-0.2,1.5-0.3,2.2-0.3s1.4,0.2,2,0.5c0.6,0.3,1.1,0.7,1.6,1.3c0.5,0.6,0.8,1.2,1,1.9
			c0.2,0.6,0.3,1.2,0.3,1.8s-0.1,1.2-0.3,1.7L114.4,50.2z"/>
		<path class="st22" d="M106.6,54.4l10.2-1.5l0.7,5.1l-0.9,0.1l-0.6-4.1l-3.2,0.5l0.6,4.1l-0.9,0.1l-0.6-4.1l-4.4,0.6l0.6,4.1
			l-0.9,0.1L106.6,54.4z"/>
	</g>
</g>
<g>
	<path class="st22" d="M0,77.2L10.8,75l1.1,5.3l-0.9,0.2L10,76.2l-3.4,0.7L7.5,81l-0.9,0.2L5.8,77l-5.6,1.1L0,77.2z"/>
	<path class="st22" d="M1.1,83.1l12.4,0.8L4.2,92l-0.4-1l3-2.6l-1.5-4.2l-4-0.1L1.1,83.1z M6.4,84.2l1.3,3.6l3.9-3.3L6.4,84.2z"/>
	<path class="st22" d="M5.3,94l9.6-5.3l0.9,1.7c0.4,0.7,0.7,1.3,0.8,1.6c0.1,0.4,0.1,0.7,0.1,1c-0.1,0.5-0.2,0.9-0.5,1.2
		c-0.3,0.4-0.6,0.7-1,0.9c-0.5,0.3-1,0.4-1.5,0.3c-0.5-0.1-0.9-0.3-1.3-0.7c0.2,0.7,0.3,1.3,0.1,1.9s-0.6,1-1.2,1.4
		c-0.5,0.2-0.9,0.4-1.3,0.5c-0.4,0.1-0.8,0-1.2-0.1c-0.4-0.1-0.8-0.4-1.1-0.7c-0.3-0.3-0.7-1-1.3-1.9L5.3,94z M6.5,94.5l0.6,1.1
		c0.3,0.6,0.6,1.1,0.8,1.3c0.2,0.2,0.4,0.4,0.6,0.5c0.3,0.1,0.6,0.2,0.9,0.1c0.3,0,0.7-0.1,1-0.3c0.4-0.2,0.7-0.5,0.9-0.8
		s0.3-0.6,0.3-0.9c0-0.2,0-0.5-0.1-0.7c-0.1-0.2-0.3-0.6-0.5-1.1L11,93.5l-0.6-1.1L6.5,94.5z M11.1,92l0.6,1.1
		c0.4,0.8,0.9,1.3,1.3,1.5c0.4,0.2,1,0.1,1.6-0.2c0.7-0.4,1-0.8,1.1-1.2c0.1-0.5-0.1-1.1-0.5-1.9l-0.6-1.1L11.1,92z"/>
	<path class="st22" d="M14.2,107.5l-0.7-1l1.8-6.2l-0.4-0.5l-4.1,3.2l-0.6-0.8l8.7-6.7l1.2,1.6c0.7,0.9,1.1,1.8,1,2.6
		s-0.4,1.5-1.2,2.1c-0.7,0.5-1.4,0.7-2.1,0.6c-0.7-0.1-1.3-0.5-1.9-1.2L14.2,107.5z M18.8,96.9l-3.2,2.5l0.6,0.8
		c0.6,0.7,1.1,1.2,1.5,1.3c0.5,0.1,1-0.1,1.5-0.5c0.6-0.5,0.9-0.9,0.9-1.4c0-0.5-0.2-1.1-0.8-1.8L18.8,96.9z"/>
	<path class="st22" d="M15.8,109.1l7.9-7.6l0.7,0.7l-7.9,7.6L15.8,109.1z"/>
	<path class="st22" d="M27.7,120l-1-0.7l-0.1-2c-0.6,0-1.2-0.2-1.8-0.4c-0.6-0.2-1.1-0.5-1.6-0.9c-0.6-0.5-1.1-1-1.5-1.7
		c-0.4-0.6-0.6-1.3-0.8-2.1c-0.1-0.8-0.1-1.5,0.1-2.3s0.5-1.4,1-2c0.5-0.6,1-1.1,1.7-1.5c0.6-0.4,1.4-0.6,2.1-0.7
		c0.8-0.1,1.5-0.1,2.3,0.1c0.7,0.2,1.4,0.5,2.1,1c0.6,0.5,1.2,1,1.6,1.7c0.4,0.7,0.7,1.4,0.8,2.1c0.1,0.8,0.1,1.5-0.1,2.3
		c-0.2,0.7-0.5,1.4-1,2c-0.5,0.6-1,1.1-1.7,1.5c-0.6,0.4-1.4,0.6-2.2,0.7L27.7,120z M26.2,112.3l1,0.7l0.2,3.1
		c0.6-0.1,1.2-0.3,1.7-0.7c0.5-0.3,1-0.7,1.3-1.2c0.4-0.5,0.7-1.1,0.8-1.7c0.2-0.6,0.2-1.2,0.1-1.9c-0.1-0.6-0.3-1.2-0.6-1.8
		c-0.3-0.5-0.7-1-1.3-1.4c-0.5-0.4-1.1-0.6-1.7-0.8c-0.6-0.2-1.2-0.2-1.9-0.1c-0.6,0.1-1.2,0.3-1.8,0.6c-0.5,0.3-1,0.8-1.4,1.3
		c-0.4,0.5-0.7,1.1-0.8,1.7c-0.2,0.6-0.2,1.2-0.1,1.9c0.1,0.6,0.3,1.2,0.6,1.8c0.3,0.5,0.7,1,1.3,1.4c0.4,0.3,0.9,0.6,1.4,0.7
		s0.9,0.2,1.4,0.2L26.2,112.3z"/>
	<path class="st22" d="M35.8,110.9l0.9,0.4l-2.9,6.6c-0.4,1-0.5,1.8-0.3,2.5c0.2,0.7,0.8,1.2,1.8,1.6c0.9,0.4,1.7,0.5,2.4,0.2
		c0.7-0.3,1.2-0.9,1.7-1.9l2.9-6.6l0.9,0.4l-2.8,6.3c-0.6,1.4-1.3,2.2-2.2,2.6c-0.9,0.4-2,0.3-3.2-0.2c-1.2-0.5-2-1.3-2.3-2.2
		c-0.3-0.9-0.2-2.1,0.4-3.4L35.8,110.9z"/>
	<path class="st22" d="M42.4,125.3l2.6-10.6l5.3,1.3l-0.2,0.9l-4.3-1.1l-0.8,3.3l4.3,1.1l-0.2,0.9l-4.3-1.1l-1.1,4.6l4.3,1.1
		l-0.2,0.9L42.4,125.3z M46.9,114l2.2-2.2l1.2,0.3l-2.7,2L46.9,114z"/>
	<path class="st22" d="M56,127.6l0.1-11l5.4,0.1l0,0.9l-4.4,0l0,3.4l4.4,0l0,0.9l-4.4,0l-0.1,4.7l4.4,0l0,0.9L56,127.6z"/>
	<path class="st22" d="M65.1,127.5l-2-11.3l9.2,7.7l-1.5-8.6l0.9-0.2l1.9,11.1l-9.2-7.7l1.5,8.7L65.1,127.5z"/>
	<path class="st22" d="M82.1,123.2l-4.6-10l4.9-2.3l0.4,0.8l-4,1.9l1.4,3.1l3.9-1.8l0.4,0.9l-3.9,1.8l2.4,5.1L82.1,123.2z"/>
	<path class="st22" d="M95.4,115.6l-1,0.7l-6.1-2.3l-0.5,0.3l2.9,4.4l-0.8,0.5l-6-9.2l1.7-1.1c1-0.7,1.9-0.9,2.6-0.8
		c0.8,0.1,1.4,0.6,2,1.4c0.5,0.7,0.6,1.4,0.5,2.1s-0.6,1.3-1.3,1.8L95.4,115.6z M85.1,110.3l2.2,3.4l0.8-0.5c0.8-0.5,1.2-1,1.4-1.4
		c0.1-0.5,0-1-0.4-1.6c-0.4-0.6-0.9-1-1.4-1c-0.5-0.1-1.1,0.2-1.9,0.7L85.1,110.3z"/>
	<path class="st22" d="M96.2,115l-4.2-11.7l11.1,5.3l-0.8,0.7l-3.5-1.8l-3.3,3l1.4,3.7L96.2,115z M95.2,109.8l2.8-2.6l-4.6-2.2
		L95.2,109.8z"/>
	<path class="st22" d="M104.9,106.7l-9.2-6.8l12-0.8l-7-5.1l0.5-0.8l9.1,6.7l-12,0.8l7.2,5.2L104.9,106.7z"/>
	<path class="st22" d="M107.5,84.4c-0.7,0.3-1.2,0.7-1.6,1.1c-0.4,0.4-0.8,0.9-1,1.5c-0.6,1.3-0.6,2.5-0.2,3.7
		c0.5,1.2,1.3,2.1,2.7,2.7c0.7,0.3,1.3,0.5,1.9,0.5c0.6,0,1.2-0.1,1.8-0.3c0.6-0.2,1.1-0.5,1.5-1c0.4-0.4,0.8-0.9,1.1-1.5
		c0.3-0.6,0.4-1.2,0.5-1.8c0-0.6,0-1.3-0.2-1.9l1.1,0.5c0.1,0.6,0.1,1.3,0,1.9s-0.2,1.2-0.5,1.7c-0.3,0.7-0.8,1.4-1.3,1.9
		c-0.6,0.5-1.2,0.9-1.9,1.2c-0.7,0.3-1.4,0.4-2.2,0.4c-0.8,0-1.5-0.2-2.3-0.6c-0.7-0.3-1.4-0.8-1.9-1.3c-0.5-0.5-0.9-1.2-1.2-1.9
		c-0.2-0.7-0.4-1.4-0.3-2.2c0-0.8,0.2-1.5,0.5-2.2c0.3-0.6,0.6-1.2,1.1-1.7c0.4-0.5,0.9-0.8,1.5-1.1L107.5,84.4z"/>
	<path class="st22" d="M116.6,84.9L106,82.2l1.3-5.3l0.9,0.2l-1.1,4.3l3.3,0.8l1.1-4.3l0.9,0.2l-1.1,4.3l4.6,1.2l1.1-4.3l0.9,0.2
		L116.6,84.9z"/>
</g>
<g>
	<path class="st22" d="M64.2,35.4c0.3,0.3,0.6,0.5,0.8,0.8c0.8,1.3,1.8,2.6,3.1,3.6c0.5,0.4,0.9,1.1,1.3,1.7c0.3,0.5,0.6,0.8,1.2,0.8
		c0.3,0,0.6,0,0.9,0c1.2,0,1.8,0.5,2.1,1.6c0.2,0.7,0.6,1,1.3,1.1c0.8,0.1,1.7,0.2,2.3,0.7c0.8,0.6,1.6,1.2,2.6,1.6
		c0.2,0.1,0.4,0.2,0.6,0.4c0.4,0.6,1.1,0.8,1.8,0.9c0.9,0.2,1.7,0.4,2.6,0.7c0.4,0.1,0.9,0.4,1.3,0.7c0.9,0.7,1.1,1.7,0.6,2.7
		c-0.1,0.2-0.3,0.5-0.4,0.6c-1.3,1-1.4,2.4-1.5,3.8c-0.1,1-0.2,1.9-0.4,2.9c-0.2,0.9-0.6,1.5-1.6,1.8c-0.2,0.1-0.5,0.3-0.7,0.5
		c-0.8,0.7-1.7,1.3-2.8,1.5c-0.5,0.1-0.7,0.4-0.7,0.9c0,0.4,0.2,0.7,0.6,0.8c0.4,0.1,0.7,0.2,1,0.4c0.9,0.4,1.4,1,1.5,2
		c0.1,0.6,0.2,1.1,0.3,1.7c0.2,0.7-0.1,1.3-0.6,1.8c0.6,0.6,1,1.3,0.8,2.2c-0.1,0.9-0.6,1.4-1.5,1.8c0.2,0.2,0.4,0.4,0.5,0.6
		c1.2,1.4,1.1,2.1-0.2,3.3c0.3,0.5,0.7,0.9,1.4,0.9c0.3,0,0.7,0,1,0.1c0.9,0.2,1.2,0.9,0.9,1.7c-0.2,0.4-0.3,0.8-0.4,1.2
		c-0.2,1.3-1,2.1-2.1,2.6c-0.7,0.3-1.4,0.4-2,0.7c-0.2,0.1-0.5,0.3-0.6,0.5c-1,2.1-3.7,2.9-5.6,1.6c-0.5-0.3-1-0.7-1.4-1.1
		c-0.5-0.4-1.1-0.6-1.7-0.5c-0.7,0.1-1.5,0.1-2.2,0c-0.5-0.1-0.9-0.4-1.3-0.7c-0.3-0.2-0.5-0.3-0.8-0.2c-0.4,0.1-0.8,0.2-1.1,0.3
		c-2,0.7-2.7,1.9-2.4,4c0,0.1,0,0.2,0.1,0.3c0.1,0.5,0.1,1-0.4,1.3c-0.5,0.4-1,0.3-1.4-0.1c-0.1-0.1-0.4-0.1-0.5,0
		c-0.9,0.4-1.7,0.4-2.6-0.1c-0.2-0.1-0.3-0.2-0.5-0.2c-1.9,0-2.3-0.2-2.9-2c-0.4,0-0.7,0-1.1,0.1c-0.7,0-1.3-0.3-1.8-0.8
		c-0.1-0.2-0.4-0.2-0.6-0.2c-1,0-2,0.2-3,0c-1-0.2-2-0.5-2.9-0.8c-1.1-0.3-2.2-0.9-3.3-1.4c-0.8-0.4-1.3-1.1-1.2-2
		c0-0.3-0.1-0.5-0.4-0.6c-1.3-0.7-1.6-1.4-0.9-2.7c0.6-1.2,1.3-2.4,2-3.6c1-1.7,1.9-3.5,2.2-5.5c0.2-1.1,0.3-2.3,0.9-3.3
		c0-0.1,0.1-0.2,0.1-0.3c-0.6-1-0.5-2.1-0.6-3.2c0-0.3-0.2-0.5-0.5-0.7c-1.6-0.9-2.2-2.5-2.4-4.2c0-0.2,0.1-0.4,0.2-0.6
		c0.3-0.5,0.3-0.9,0-1.3c-0.4-0.5-0.7-1.1-1.2-1.4c-1.2-0.9-2.4-1.7-3.6-2.5c-0.3-0.2-0.7-0.2-1.1-0.3c-0.7-0.3-1.5-0.4-2.1-0.8
		c-1.1-0.7-1.3-1.9-0.6-3c0.1-0.2,0.2-0.3,0.3-0.4c-0.2-0.3-0.4-0.5-0.6-0.7c-0.4-0.7-0.2-1.5,0.6-2.1c1.3-1,3.3-1.1,4.6-0.2
		c0.1,0,0.2,0.1,0.3,0.2c1.2-0.8,2.5-0.5,3.7-0.2c0.3,0.1,0.6,0.4,0.7,0.7c0.5,1.1,0.7,1.1,1.8,0.9c0.5-0.1,1.1-0.1,1.7-0.1
		c-0.1-0.4-0.2-0.9-0.3-1.4c-0.1-0.6-0.3-1.2-0.5-1.8c-0.6-2.1,0.8-3.3,2.8-2.9c1.3,0.2,2.3,0.9,2.9,2.1c0.5,0.9,1.3,1.3,2.2,1
		c0.2,0,0.4-0.2,0.4-0.3c0.4-1.6,1.5-2,2.8-2c1,0,2-0.3,2.9-0.8c0.2-0.1,0.3-0.4,0.4-0.6c0.2-0.3,0.3-0.6,0.4-0.9
		c0.3-0.5,0.4-1,0.3-1.6c-0.2-1,0.1-1.6,1-2c0.9-0.4,1.8-0.6,2.8-0.9c0.2-0.1,0.4-0.1,0.7-0.2C63.7,35.4,64,35.4,64.2,35.4z
		 M51.1,47.2c0,0.1,0,0.4,0,0.6c0,4.4,0,8.8,0,13.3c0,0.2,0,0.5-0.1,0.7c-0.1,0.5-0.6,0.9-1.2,0.8c-0.5,0-0.9-0.4-1-1
		c0-0.2,0-0.4,0-0.6c0-4.7,0-9.5,0-14.2c0-0.2,0-0.5-0.2-0.7c-0.3-0.5-0.7-0.9-1.1-1.4c-0.4-0.5-0.9-0.8-1.6-0.9
		c0.1,0.3,0.2,0.5,0.2,0.7c0.2,1.1,0.6,2.2,0.7,3.3c0.1,1.7-1.2,2.7-2.8,2.3c-0.3-0.1-0.7-0.1-1,0c-1.6,0.3-2.7-0.2-3.5-1.5
		c-0.3-0.5-1.1-0.6-1.5-0.2c-0.5,0.5-1,0.7-1.6,0.4c-0.4-0.2-0.8-0.4-1.1-0.7c-0.4-0.3-0.7-0.3-1.2-0.1c1,1.2,0,2.1-0.7,3.1
		c0.4,0.1,0.7,0.3,1.1,0.4c0.7,0.2,1.5,0.4,2.2,0.8c1,0.5,1.9,1.2,2.9,1.9c1,0.8,2,1.7,2.6,2.8c0.5,0.9,0.7,1.8,0.3,2.7
		c-0.3,0.8,0.3,2.2,1.1,2.5c0.9,0.3,1.3,1,1.4,1.8c0.1,0.5,0.1,1.1,0.2,1.6c0.1,0.4,0,0.9,0.2,1.2c0.7,0.9,0.4,1.7,0,2.5
		C45.3,70,45,70.5,45,71.1c-0.1,1.5-0.5,2.9-1.1,4.2c-0.9,1.8-1.8,3.5-2.7,5.2c-0.2,0.3-0.4,0.7-0.6,1.1c1,0.6,1.6,1.3,1.5,2.4
		c0,0.1,0.2,0.3,0.4,0.4c0.9,0.4,1.7,0.7,2.6,1.1c0.2,0.1,0.4,0.1,0.6,0.1c0.6,0.1,1.1,0.3,1.7,0.5c0.5,0.1,1,0.2,1.6,0.3
		c0-1.5,0-2.9,0-4.2c0-3.5,0-7.1,0-10.6c0-0.8,0.4-1.3,1.1-1.3c0.7,0,1.1,0.5,1.1,1.3c0,0.1,0,0.3,0,0.4c0,4.4,0,8.9,0,13.3
		c0,0.2,0,0.4,0,0.7c0,0,0.1-0.1,0.1-0.1c0.4,0.3,0.9,0.5,1.2,0.9c0.3,0.4,0.6,0.4,1,0.4c0.2,0,0.4-0.1,0.7-0.1
		c0.9-0.1,1.5,0.3,1.8,1.1c0.1,0.2,0.1,0.5,0.2,0.7c0.1,0.1,0.3,0.3,0.4,0.3c0.7-0.1,1.3,0.1,1.9,0.4c0.2,0.1,0.4,0.1,0.6,0
		c0.3-0.1,0.6-0.2,0.9-0.4c0-1.7,0.5-3.2,2-4.2c1.4-1,3-1.4,4.7-1.5c0-0.3,0-0.5,0-0.7c0-13.6,0-27.1,0-40.7c0-0.1,0-0.3,0-0.4
		c0-0.1-0.1-0.3-0.2-0.4c-1.2-0.8-2.1-2-2.8-3.2c-0.1-0.1-0.3-0.2-0.4-0.2c-0.6,0.1-1.2,0.3-1.9,0.5c0.2,1.1-0.1,2-0.6,2.9
		c0,0.1-0.1,0.2-0.1,0.3c-0.1,1.1-0.8,1.7-1.7,2.2c-1.2,0.7-2.4,1-3.8,1c-0.4,0-0.6,0.1-0.7,0.6c-0.1,0.8-0.6,1.3-1.3,1.5
		C52.5,47,51.8,47.1,51.1,47.2z M79.5,72.9c-0.3-0.2-0.5-0.4-0.7-0.6c-0.7-0.6-0.8-1.6-0.1-2.2c0.4-0.4,0.6-0.7,0.4-1.3
		c0-0.1,0-0.1,0-0.2c-0.1-0.9-0.1-0.9-1-1.2c-0.7-0.2-1.2-0.5-1.6-1c-1.3-1.8-0.3-4.4,1.9-4.9c0.5-0.1,1-0.4,1.4-0.7
		c0.5-0.3,0.9-0.8,1.4-1c0.4-0.2,0.6-0.5,0.6-0.9c0.1-0.9,0.2-1.9,0.3-2.8c0.2-1.6,0.6-3.1,1.9-4.2c0.1-0.1,0.1-0.2,0.2-0.3
		c-0.4-0.1-0.7-0.3-1-0.3c-0.9-0.2-1.9-0.4-2.8-0.7c-0.5-0.2-1-0.5-1.5-0.8c-0.4-0.3-0.8-0.6-1.3-0.8c-0.6-0.2-1.2-0.6-1.6-1.1
		c-0.3-0.3-0.7-0.5-1.1-0.6c-0.3-0.1-0.6-0.1-0.9-0.1c-1.4-0.2-2.4-0.9-2.8-2.3c0-0.1-0.1-0.2-0.1-0.2c-0.9-0.1-1.6-0.3-2.5-0.4
		c0,13.4,0,26.9,0,40.4c0.3,0,0.7,0,1,0c1.3-0.2,2.4,0.1,3.4,1c0.4,0.3,0.8,0.7,1.3,1c0.7,0.5,2,0.1,2.3-0.7c0.3-1,1-1.4,1.9-1.7
		c0.6-0.2,1.2-0.3,1.8-0.6c0.7-0.3,0.9-0.7,0.9-1.4c-2.7-0.7-3.6-2.8-2.2-4.9c-0.3-0.4-0.6-0.8-0.9-1.1
		C77.1,74.8,77.2,73.2,79.5,72.9z"/>
	<path class="st22" d="M50,67.6c-0.6,0-1.1-0.5-1.1-1.1c0-0.6,0.5-1.1,1.1-1.1c0.6,0,1.1,0.5,1.1,1.1C51.1,67.1,50.6,67.6,50,67.6z"
		/>
</g>
</svg>
