<?xml version="1.0" encoding="utf-8"?>
<!-- Generator: Adobe Illustrator 22.1.0, SVG Export Plug-In . SVG Version: 6.00 Build 0)  -->
<svg version="1.1" id="Calque_1" xmlns="http://www.w3.org/2000/svg" xmlns:xlink="http://www.w3.org/1999/xlink" x="0px" y="0px"
	 viewBox="0 0 121.6 119.2" style="enable-background:new 0 0 121.6 119.2;" xml:space="preserve">
<style type="text/css">
	.st0{fill:#815938;}
	.st1{fill:#6B4A00;}
	.st2{fill:#937A56;}
	.st3{fill:#FFFFFF;}
	.st4{fill:#EFD5D5;}
	.st5{fill:#EDC0C0;}
	.st6{fill:#C19680;}
	.st7{fill:#9C8965;}
	.st8{fill:#FEFEFE;}
	.st9{fill:#847A61;}
	.st10{fill:#C5B791;}
	.st11{fill:#B7A67D;}
	.st12{fill:#EDE9DD;}
	.st13{fill:#A89566;}
	.st14{fill:#A28D5B;}
	.st15{fill:#D9CEAF;}
	.st16{fill:#E4DDC7;}
	.st17{fill:#F7F6F1;}
	.st18{fill:#B09E72;}
	.st19{fill:#FDFDFD;}
	.st20{fill:#F4F1EB;}
	.st21{fill:#FFCF87;}
	.st22{fill:black;}
</style>
<g>
	<g>
		<path class="st22" d="M20.3,21.4c-0.8,0.1-1.5,0.4-2.1,0.7s-1.2,0.8-1.6,1.3c-1.1,1.2-1.5,2.6-1.4,4c0.1,1.4,0.8,2.7,2.1,3.8
			c0.6,0.5,1.3,0.9,1.9,1.2c0.7,0.2,1.4,0.3,2.1,0.3c0.7-0.1,1.4-0.2,2-0.6c0.6-0.3,1.2-0.8,1.7-1.3c0.5-0.5,0.8-1.2,1.1-1.8
			s0.4-1.4,0.4-2.2l1,0.9c-0.1,0.7-0.3,1.4-0.6,2.1c-0.3,0.7-0.7,1.2-1.1,1.8c-0.6,0.7-1.3,1.2-2.1,1.7c-0.8,0.4-1.6,0.7-2.4,0.7
			c-0.9,0.1-1.7,0-2.5-0.3s-1.6-0.7-2.3-1.3c-0.7-0.6-1.3-1.3-1.7-2.1c-0.4-0.8-0.6-1.6-0.7-2.4c-0.1-0.8,0.1-1.7,0.4-2.5
			s0.7-1.6,1.3-2.3c0.5-0.6,1.1-1.1,1.7-1.5s1.3-0.6,2-0.8L20.3,21.4z"/>
		<path class="st22" d="M29.6,27L22,17l4.9-3.8l0.7,0.9l-4,3.1l2.4,3.1l4-3.1l0.7,0.9l-4,3.1l3.3,4.3l4-3.1l0.7,0.8L29.6,27z
			 M22.8,14.9l-0.4-3.5l1.1-0.9l-0.1,3.9L22.8,14.9z"/>
		<path class="st22" d="M43.2,18.5L42,19.2l-6.7-3.3l-0.6,0.3l2.7,5.3l-1,0.5l-5.7-11.2l2.1-1.1C34,9.2,35,9,35.9,9.2
			C36.7,9.4,37.4,10,38,11c0.4,0.9,0.5,1.7,0.3,2.4c-0.3,0.8-0.8,1.4-1.7,1.8L43.2,18.5z M32.2,11.2l2.1,4.1l1-0.5
			c0.9-0.5,1.5-1,1.7-1.5c0.2-0.5,0.1-1.1-0.2-1.8c-0.4-0.8-0.9-1.2-1.4-1.3c-0.6-0.1-1.3,0-2.2,0.5L32.2,11.2z"/>
		<path class="st22" d="M46.2,17.7L42.8,6.7l-3.3,1l-0.3-1l7.7-2.4l0.3,1l-3.3,1l3.5,10.9L46.2,17.7z"/>
		<path class="st22" d="M52.1,16.1L49.9,3.8L51,3.6l2.2,12.3L52.1,16.1z"/>
		<path class="st22" d="M56,15.5L55.3,2.9l6.2-0.3l0.1,1.1L56.5,4l0.2,3.9l4.9-0.3l0.1,1.1l-4.9,0.3l0.3,6.5L56,15.5z"/>
		<path class="st22" d="M64.4,15.3l0.9-12.5l1.1,0.1l-0.9,12.5L64.4,15.3z"/>
		<path class="st22" d="M68.3,15.7l2.5-12.3l6.1,1.3l-0.2,1l-5-1l-0.8,3.8l5,1l-0.2,1l-5-1l-1.1,5.3l5,1l-0.2,1L68.3,15.7z M72.9,2.6
			L75.3,0l1.4,0.3l-3,2.4L72.9,2.6z"/>
		<path class="st22" d="M80.9,19.3l5.9-11.1l1.9,1c0.8,0.4,1.4,0.8,1.8,1.1c0.3,0.3,0.6,0.6,0.7,0.9c0.2,0.5,0.3,1,0.3,1.5
			c0,0.5-0.2,1-0.4,1.5c-0.3,0.6-0.7,1-1.3,1.3c-0.5,0.3-1.1,0.3-1.7,0.1c0.7,0.5,1.1,1.1,1.2,1.7c0.2,0.7,0,1.4-0.3,2.1
			c-0.3,0.5-0.6,0.9-1,1.3c-0.4,0.3-0.8,0.5-1.3,0.7c-0.5,0.1-1,0.1-1.5,0c-0.5-0.1-1.3-0.5-2.4-1L80.9,19.3z M82.4,19l1.3,0.7
			c0.7,0.4,1.3,0.6,1.6,0.7s0.6,0.1,0.9,0.1c0.3-0.1,0.7-0.2,1-0.5c0.3-0.2,0.6-0.5,0.8-0.9c0.2-0.4,0.4-0.9,0.4-1.3
			c0-0.4-0.1-0.8-0.3-1.1c-0.1-0.2-0.3-0.4-0.6-0.6c-0.2-0.2-0.6-0.4-1.2-0.7L86,15.2l-1.3-0.7L82.4,19z M85.2,13.7l1.3,0.7
			c0.9,0.5,1.7,0.7,2.2,0.6c0.5-0.1,1-0.5,1.4-1.2c0.4-0.8,0.5-1.4,0.3-1.9c-0.2-0.5-0.8-1-1.7-1.5l-1.3-0.7L85.2,13.7z"/>
		<path class="st22" d="M89,24l7.3-10.2l0.9,0.7l-7.3,10.2L89,24z"/>
		<path class="st22" d="M105.5,31c-0.6,0.6-1.4,1.1-2.2,1.4c-0.8,0.3-1.7,0.4-2.5,0.4c-0.9,0-1.7-0.2-2.5-0.6s-1.5-0.9-2.1-1.5
			c-0.6-0.7-1.1-1.4-1.4-2.2c-0.3-0.8-0.5-1.7-0.5-2.6c0-0.9,0.2-1.7,0.5-2.5c0.3-0.8,0.8-1.5,1.5-2.1c0.7-0.6,1.4-1.1,2.2-1.4
			c0.8-0.3,1.7-0.4,2.6-0.4c0.9,0,1.7,0.2,2.5,0.6c0.8,0.4,1.5,0.9,2.1,1.5c0.6,0.7,1.1,1.4,1.4,2.2c0.3,0.8,0.5,1.7,0.5,2.5
			c0,0.9-0.2,1.7-0.6,2.5S106.2,30.3,105.5,31z M96.9,29.9c0.5,0.5,1.1,1,1.7,1.2s1.4,0.5,2.1,0.5c0.7,0,1.5-0.1,2.1-0.4
			c0.7-0.3,1.3-0.7,1.8-1.2c0.5-0.5,1-1.1,1.3-1.8s0.5-1.4,0.5-2.1c0-0.7-0.1-1.4-0.4-2.1s-0.6-1.3-1.2-1.8c-0.5-0.5-1.1-1-1.7-1.2
			c-0.7-0.3-1.4-0.4-2.1-0.5c-0.8,0-1.5,0.1-2.1,0.4c-0.7,0.3-1.3,0.6-1.8,1.2c-0.5,0.5-1,1.1-1.3,1.8c-0.3,0.7-0.5,1.4-0.5,2.1
			c0,0.7,0.1,1.5,0.3,2.1C96,28.7,96.4,29.3,96.9,29.9z"/>
	</g>
	<g>
		<path class="st22" d="M26.5,95.1c0-0.8-0.1-1.6-0.3-2.2c-0.2-0.7-0.6-1.3-1-1.8c-1-1.2-2.3-1.9-3.7-2.1c-1.4-0.1-2.8,0.3-4.1,1.4
			c-0.6,0.5-1.1,1.1-1.5,1.7c-0.4,0.6-0.6,1.3-0.6,2c-0.1,0.7,0,1.4,0.2,2.1c0.2,0.7,0.6,1.3,1,1.9c0.5,0.6,1,1,1.6,1.4
			c0.6,0.4,1.3,0.6,2.1,0.8l-1,0.9c-0.7-0.2-1.3-0.6-1.9-1c-0.6-0.4-1.1-0.9-1.5-1.4c-0.6-0.7-1-1.5-1.3-2.3
			c-0.3-0.8-0.4-1.7-0.3-2.5c0.1-0.9,0.3-1.7,0.7-2.4c0.4-0.8,1-1.4,1.7-2c0.7-0.6,1.5-1,2.3-1.3c0.8-0.3,1.7-0.4,2.5-0.3
			c0.8,0.1,1.6,0.3,2.4,0.8c0.8,0.4,1.5,1,2,1.7c0.5,0.6,0.9,1.3,1.2,1.9s0.4,1.4,0.4,2.1L26.5,95.1z"/>
		<path class="st22" d="M21.6,104.3l7.8-9.8l4.8,3.9l-0.7,0.8l-4-3.2l-2.5,3.1l4,3.2l-0.7,0.8l-4-3.2l-3.4,4.2l4,3.2l-0.7,0.8
			L21.6,104.3z"/>
		<path class="st22" d="M36.6,114.1l-1.2-0.7l-1-7.4l-0.6-0.3l-2.9,5.2l-1-0.5l6-11l2,1.1c1.2,0.7,2,1.4,2.3,2.2
			c0.3,0.8,0.2,1.7-0.3,2.7c-0.5,0.9-1.1,1.4-1.9,1.6c-0.8,0.2-1.6,0.1-2.5-0.4L36.6,114.1z M36.5,100.9l-2.2,4.1l1,0.6
			c0.9,0.5,1.7,0.7,2.2,0.6c0.5-0.1,1-0.5,1.4-1.2c0.4-0.8,0.5-1.4,0.3-1.9c-0.2-0.5-0.8-1-1.7-1.5L36.5,100.9z"/>
		<path class="st22" d="M41.2,115.8l3.7-10.8l-3.3-1.1l0.3-1l7.6,2.6l-0.3,1l-3.3-1.1l-3.7,10.8L41.2,115.8z"/>
		<path class="st22" d="M48.4,117.8l2.6-12.3l1.1,0.2l-2.6,12.3L48.4,117.8z"/>
		<path class="st22" d="M53.5,118.8l1-12.5l6.2,0.5l-0.1,1.1l-5.1-0.4l-0.3,3.9l4.9,0.4l-0.1,1.1l-4.9-0.4l-0.5,6.5L53.5,118.8z"/>
		<path class="st22" d="M63.2,119.2l-0.5-12.5l1.1,0l0.5,12.5L63.2,119.2z"/>
		<path class="st22" d="M68.5,118.9l-2.1-12.4l6.1-1l0.2,1.1l-5,0.9l0.7,3.9l5-0.9l0.2,1.1l-5,0.9l0.9,5.3l5-0.9l0.2,1.1L68.5,118.9z
			 M68.1,105l1.3-3.3l1.4-0.2l-1.9,3.4L68.1,105z"/>
		<path class="st22" d="M84.1,114.8l-5.4-11.3l2-0.9c0.9-0.4,1.5-0.7,1.9-0.8s0.8-0.1,1.2,0c0.5,0.1,1,0.3,1.4,0.6s0.7,0.7,0.9,1.2
			c0.3,0.6,0.4,1.2,0.3,1.8c-0.1,0.6-0.4,1.1-0.9,1.5c0.8-0.2,1.5-0.2,2.1,0.1c0.6,0.3,1.1,0.8,1.5,1.5c0.3,0.5,0.4,1,0.4,1.5
			c0,0.5,0,1-0.2,1.4c-0.2,0.5-0.5,0.9-0.9,1.2c-0.4,0.3-1.2,0.8-2.3,1.3L84.1,114.8z M82.1,108l1.3-0.6c0.9-0.5,1.5-0.9,1.8-1.4
			c0.2-0.5,0.2-1.1-0.2-1.8c-0.4-0.8-0.8-1.2-1.4-1.4c-0.5-0.1-1.3,0-2.2,0.5l-1.3,0.6L82.1,108z M84.7,113.4l1.3-0.6
			c0.7-0.4,1.2-0.6,1.5-0.8s0.4-0.4,0.6-0.7c0.2-0.3,0.2-0.7,0.2-1c0-0.4-0.1-0.8-0.3-1.2c-0.2-0.5-0.5-0.8-0.8-1.1
			c-0.3-0.3-0.7-0.4-1-0.5c-0.2,0-0.5,0-0.8,0.1c-0.3,0.1-0.7,0.3-1.3,0.5l-0.2,0.1l-1.3,0.6L84.7,113.4z"/>
		<path class="st22" d="M93.6,109.8l-6.9-10.5l1-0.6l6.9,10.5L93.6,109.8z"/>
		<path class="st22" d="M103.3,93.3c0.6,0.6,1.1,1.4,1.4,2.2c0.3,0.8,0.5,1.7,0.4,2.5c0,0.9-0.2,1.8-0.6,2.6
			c-0.4,0.8-0.9,1.5-1.5,2.1c-0.6,0.6-1.4,1.1-2.2,1.4s-1.7,0.5-2.6,0.5c-0.9,0-1.7-0.2-2.5-0.5c-0.8-0.3-1.5-0.8-2.1-1.5
			c-0.6-0.6-1.1-1.4-1.4-2.2c-0.3-0.8-0.5-1.7-0.4-2.6c0-0.9,0.2-1.7,0.6-2.5c0.4-0.8,0.9-1.5,1.5-2.1c0.7-0.6,1.4-1.1,2.2-1.5
			c0.8-0.3,1.6-0.5,2.5-0.5c0.9,0,1.7,0.2,2.5,0.5C102,92.2,102.7,92.6,103.3,93.3z M102.4,102c0.5-0.5,0.9-1.1,1.2-1.8
			s0.4-1.4,0.5-2.1c0-0.7-0.1-1.5-0.4-2.1c-0.3-0.7-0.7-1.3-1.2-1.8c-0.5-0.5-1.1-1-1.8-1.3c-0.7-0.3-1.4-0.4-2.1-0.5
			c-0.7,0-1.4,0.1-2.1,0.4c-0.7,0.3-1.3,0.7-1.8,1.2c-0.5,0.5-0.9,1.1-1.2,1.8S93,97.1,93,97.8c0,0.8,0.1,1.5,0.4,2.1
			c0.3,0.7,0.7,1.3,1.2,1.8c0.5,0.5,1.1,1,1.8,1.3c0.7,0.3,1.4,0.4,2.1,0.5c0.7,0,1.5-0.1,2.1-0.4
			C101.2,102.9,101.8,102.5,102.4,102z"/>
	</g>
	<g>
		<g>
			<path class="st22" d="M37.4,55.8c3.1,0.1,6.2,0.1,9.4,0.2c1.4,0.1,2.7,0.5,3.8,1.5c1.4,1.3,1.6,3,1.2,4.7
				c-0.3,1.8-1.4,2.9-3.2,3.3c-0.1,0-0.3,0.1-0.5,0.2c0.6,0.2,1.1,0.3,1.5,0.5c1.6,0.6,2.5,1.7,2.8,3.3c0.3,1.7,0.1,3.3-1,4.7
				c-1,1.4-2.5,2-4.1,2.3c-0.7,0.1-1.5,0.2-2.2,0.2c-2.6,0-5.2,0-7.8,0C37.4,69.8,37.4,62.8,37.4,55.8z M40.8,73.9
				c1.3,0,2.5,0,3.8,0c0.5,0,1-0.1,1.6-0.2c2.3-0.4,3.5-3.1,2.2-5.1c-0.6-0.8-1.4-1.2-2.3-1.3c-1.7-0.1-3.4-0.1-5.1-0.2
				c0,0-0.1,0-0.1,0.1C40.8,69.5,40.8,71.7,40.8,73.9z M40.8,64.4c1.5,0,2.9,0,4.3,0c0.4,0,0.9-0.1,1.3-0.2c1.3-0.4,1.9-1.3,1.9-2.7
				c0-1.3-0.6-2.1-1.9-2.5c-1.8-0.5-3.7-0.2-5.6-0.3c0,0.1,0,0.2,0,0.3C40.8,60.8,40.8,62.6,40.8,64.4z"/>
		</g>
		<g>
			<path class="st22" d="M64.8,66.2c0-2.1,0.3-4.1,1.2-6c1.2-2.4,3.1-3.9,5.8-4.5c2.5-0.6,5-0.5,7.5,0.5c2.4,1,3.9,2.9,4.7,5.4
				c1,3.3,1,6.6-0.3,9.9c-1.2,3.2-3.7,5-7,5.4c-1.9,0.3-3.7,0.2-5.6-0.4c-3-1-4.8-3-5.7-6c-0.2-0.7-0.3-1.4-0.4-2.1
				C64.9,67.8,64.9,67,64.8,66.2z M68.5,66.3c0.1,0.7,0.1,1.4,0.2,2.1c0.1,1.2,0.5,2.3,1.1,3.3c1.2,1.8,2.9,2.5,5,2.5
				c3,0,4.9-1.4,5.8-4.2c0.7-2.4,0.7-4.9,0-7.3c-0.8-2.8-2.7-4.2-5.6-4.3c-2.8-0.1-4.9,1.3-5.8,3.8C68.7,63.5,68.5,64.9,68.5,66.3z"
				/>
		</g>
		<g>
			<path class="st22" d="M57.6,54c-0.8-2-0.9-4.1-0.6-6.1c0.8-4.2,3.1-7.3,6.9-9.2c2.4-1.2,4.9-1.4,7.5-0.5c0.2,0.1,0.3,0.1,0.5,0.2
				c-0.1,0.3-0.2,0.6-0.3,0.9c-0.7,2.3-1.3,4.7-2.5,6.8c-1.4,2.5-3.3,4.6-5.7,6.1c-1.1,0.7-2.3,1.2-3.4,1.8
				c-0.4,0.2-0.9,0.2-1.4,0.3c1.4-3.7,2.9-7.2,5.7-9.9C61.1,46.9,59.3,50.4,57.6,54z"/>
		</g>
		<g>
			<path class="st22" d="M56.9,55.8c1.2,0,2.3,0,3.4,0c0,7,0,14,0,21c-1.1,0-2.3,0-3.4,0C56.9,69.8,56.9,62.8,56.9,55.8z"/>
		</g>
	</g>
</g>
</svg>
