<?xml version="1.0" encoding="utf-8"?>
<!-- Generator: Adobe Illustrator 22.1.0, SVG Export Plug-In . SVG Version: 6.00 Build 0)  -->
<svg version="1.1" id="Calque_1" xmlns="http://www.w3.org/2000/svg" xmlns:xlink="http://www.w3.org/1999/xlink" x="0px" y="0px"
	 viewBox="0 0 41.5 41.5" style="enable-background:new 0 0 41.5 41.5;" xml:space="preserve">
<style type="text/css">
	.st0{fill:#7F462D;}
</style>
<g>
	<g>
		<path class="st0" d="M11.9,15.9c3.8,5.4,8.3,9.9,13.7,13.7c0.4-0.6,0.9-1.2,1.3-1.8c1.7-2.4,4.4-2.9,6.8-1.2
			c1.9,1.3,3.8,2.6,5.6,3.9c2.2,1.5,2.8,3.8,1.6,6.2c-1.5,3-4,4.5-7.3,4.7c-3.6,0.3-7-0.6-10.2-2.2C13.9,34.6,6.7,27.4,2.1,17.8
			c-1.5-3.1-2.4-6.4-2.1-9.9C0.4,4.4,2,1.7,5.4,0.3c1.9-0.8,4-0.2,5.2,1.4c1.6,2.1,3.1,4.3,4.6,6.6c1.3,2,0.8,4.6-1.1,6.1
			C13.4,14.9,12.6,15.4,11.9,15.9z"/>
	</g>
</g>
</svg>
